<svg width="18" height="18" viewBox="0 0 18 18" fill="none" xmlns="http://www.w3.org/2000/svg">
<path d="M6.31388 13.5087V6.4586C6.31388 6.18104 6.39489 5.91041 6.54341 5.68142L8.38643 2.86416C8.67672 2.41313 9.39908 2.09393 10.0134 2.32986C10.675 2.55885 11.1138 3.32214 10.9721 4.00217L10.621 6.27124C10.594 6.47942 10.648 6.66677 10.7628 6.81249C10.8775 6.94433 11.0463 7.0276 11.2286 7.0276H14.0032C14.5366 7.0276 14.9956 7.24965 15.2657 7.63824C15.5222 8.01295 15.5695 8.49868 15.4007 8.99135L13.74 14.1887C13.5307 15.0492 12.6193 15.75 11.7147 15.75H9.08178C8.62947 15.75 7.99487 15.5904 7.70458 15.292L6.84046 14.6051C6.50966 14.3483 6.31388 13.9389 6.31388 13.5087ZM4.16707 5.10479H3.47171C2.42531 5.10479 2 5.52113 2 6.54811V13.5288C2 14.5558 2.42531 14.9721 3.47171 14.9721H4.16707C5.21347 14.9721 5.63878 14.5558 5.63878 13.5288V6.54811C5.63878 5.52113 5.21347 5.10479 4.16707 5.10479Z" fill="#F8594E"/>
</svg>
