<svg width="37" height="16" viewBox="0 0 37 16" fill="none" xmlns="http://www.w3.org/2000/svg">
<rect width="37" height="16" rx="8" fill="white"/>
<rect x="0.5" y="0.5" width="36" height="15" rx="7.5" stroke="#0071B9" stroke-opacity="0.3"/>
<rect width="16" height="16" rx="8" fill="#0071B9"/>
<path fill-rule="evenodd" clip-rule="evenodd" d="M7.92505 10.184V7.60962H5.83292L5.98173 8.5802H6.84834V9.51844C6.64701 9.63399 6.45005 9.68945 6.17431 9.68945C5.31207 9.68945 4.87877 8.99155 4.87877 7.99785C4.87877 7.00878 5.29894 6.33861 6.16118 6.33861C6.67765 6.33861 7.11971 6.53735 7.49612 6.79155L7.66244 5.64995C7.25977 5.41424 6.7433 5.26172 6.13054 5.26172C4.58552 5.26172 3.63574 6.37096 3.63574 8.0071C3.63574 9.63861 4.51111 10.7386 6.0999 10.7386C6.78707 10.7386 7.4042 10.5399 7.92505 10.184Z" fill="white"/>
<path fill-rule="evenodd" clip-rule="evenodd" d="M12.0003 9.04666C12.0003 8.20548 11.567 7.808 10.4815 7.38741C9.85562 7.13783 9.71993 7.0038 9.71993 6.73573C9.71993 6.49078 9.89938 6.32439 10.2802 6.32439C10.661 6.32439 11.1337 6.47691 11.5845 6.7496L11.7727 5.6496C11.335 5.42775 10.9192 5.29834 10.267 5.29834C9.31289 5.29834 8.55569 5.8391 8.55569 6.86052C8.55569 7.73405 8.989 8.07607 9.9913 8.48279C10.696 8.76472 10.8404 8.90338 10.8404 9.2038C10.8404 9.51809 10.5953 9.67985 10.2364 9.67985C9.73744 9.67985 9.16408 9.48111 8.65198 9.18993L8.47253 10.3084C8.98025 10.5534 9.54486 10.7059 10.2189 10.7059C11.2037 10.7013 12.0003 10.1975 12.0003 9.04666Z" fill="white"/>
<path d="M25.5059 7.53711V8.32812H18.2637V7.53711H25.5059ZM18.6152 6.41211C20.0874 6.26709 21.0454 5.67822 21.1948 5.01465H18.9229V4.21484H24.8555V5.01465H22.5615C22.7065 5.66943 23.6558 6.26709 25.1631 6.41211L24.8203 7.18555C23.3745 7.03613 22.3066 6.46045 21.876 5.65625C21.4453 6.46045 20.3906 7.03613 18.9492 7.18555L18.6152 6.41211ZM19.1074 10.3145C19.1074 9.3916 20.1489 8.85547 21.876 8.85547C23.5898 8.85547 24.6226 9.3916 24.627 10.3145C24.6226 11.2505 23.5898 11.7734 21.876 11.7734C20.1489 11.7734 19.1074 11.2505 19.1074 10.3145ZM20.1006 10.3145C20.0962 10.7759 20.7202 11.0044 21.876 11.0088C23.0142 11.0044 23.6426 10.7759 23.6514 10.3145C23.6426 9.85303 23.0142 9.62012 21.876 9.62012C20.7202 9.62012 20.0962 9.85303 20.1006 10.3145ZM32.6953 3.83691V8.55664H31.7197V6.61426H30.3662V5.81445H31.7197V3.83691H32.6953ZM26.0156 7.76562C27.2944 7.32617 27.9668 6.2583 27.9668 5.20801V5.14648H26.3145V4.35547H30.6035V5.14648H28.96V5.19922C28.96 6.16602 29.6016 7.1416 30.832 7.55469L30.3398 8.32812C29.4565 8.0293 28.8325 7.42285 28.481 6.67578C28.1338 7.51953 27.4702 8.20508 26.5254 8.53906L26.0156 7.76562ZM27.3076 10.2705C27.2988 9.31689 28.3315 8.75879 30.0059 8.75879C31.689 8.75879 32.7173 9.31689 32.7217 10.2705C32.7173 11.2241 31.689 11.7778 30.0059 11.7822C28.3315 11.7778 27.2988 11.2241 27.3076 10.2705ZM28.2744 10.2705C28.27 10.7627 28.9028 11.0308 30.0059 11.0264C31.1177 11.0308 31.7461 10.7627 31.7461 10.2705C31.7461 9.77393 31.1177 9.50586 30.0059 9.50586C28.9028 9.50586 28.27 9.77393 28.2744 10.2705Z" fill="#0071B9"/>
</svg>
