<svg width="37" height="16" viewBox="0 0 37 16" fill="none" xmlns="http://www.w3.org/2000/svg">
<rect width="37" height="16" rx="8" fill="white"/>
<rect width="16" height="16" rx="8" fill="#F9B233"/>
<path d="M7.85089 11.5C5.87078 11.5 5 10.3484 5 8.89194V7.31129C5 5.29032 6.43141 4.5 8.10139 4.5C10.1173 4.5 11 5.53871 11 6.57742C11 8.10161 9.35388 8.47419 8.63817 8.66613C8.42346 8.72258 7.66004 8.9371 7.48111 8.98226C6.80119 9.1629 6.61034 9.37742 6.61034 9.61452C6.61034 10.021 6.98012 10.371 7.85089 10.371C8.60239 10.371 9.16302 10.1226 9.24652 9.37742H10.833C10.6779 10.5629 9.92644 11.5 7.85089 11.5ZM8.02982 5.62903C7.14712 5.62903 6.57455 6.18226 6.57455 7.13064V8.12419C6.57455 8.12419 7.7674 7.79677 8.25646 7.65C8.67396 7.52581 9.41352 7.27742 9.41352 6.65645C9.42545 6.12581 8.96024 5.62903 8.02982 5.62903Z" fill="white"/>
<path d="M18.5273 11H22.9482V10.042H20.1182V9.99805L21.252 8.87305C22.5044 7.69092 22.8472 7.11084 22.8516 6.39453C22.8472 5.32666 21.9727 4.54883 20.6719 4.54883C19.4019 4.54883 18.4966 5.33105 18.501 6.53516H19.5908C19.5864 5.88916 20.0083 5.48047 20.6631 5.48047C21.2827 5.48047 21.7529 5.854 21.7529 6.44727C21.7529 6.9834 21.4189 7.36133 20.7773 8.00293L18.5273 10.1738V11ZM25.8398 9.97168H26.8066V8.31055H28.4766V7.33496H26.8066V5.67383H25.8398V7.33496H24.1787V8.31055H25.8398V9.97168ZM32.335 4.63672H31.2363L29.6631 5.65625V6.70215L31.1484 5.75293H31.1836V11H32.335V4.63672Z" fill="#D89319"/>
<rect x="0.5" y="0.5" width="36" height="15" rx="7.5" stroke="#F9B233" stroke-opacity="0.3"/>
</svg>
