<svg width="18" height="18" viewBox="0 0 18 18" fill="none" xmlns="http://www.w3.org/2000/svg">
<path d="M13.0499 2.3999H6.5845C5.89972 2.40209 5.24362 2.67509 4.7594 3.15931C4.27519 3.64352 4.00219 4.29963 4 4.9844V14.4249C4 15.6299 4.86427 16.1451 5.91968 15.5551L9.18563 13.7351C9.53466 13.544 10.0998 13.544 10.4405 13.7351L13.7064 15.5551C14.7618 16.1451 15.6261 15.6299 15.6261 14.4249V4.9844C15.6267 4.64555 15.5605 4.3099 15.4313 3.99663C15.3021 3.68336 15.1125 3.3986 14.8733 3.15861C14.6341 2.91861 14.3499 2.72809 14.0371 2.59791C13.7242 2.46773 13.3888 2.40045 13.0499 2.3999Z" fill="#747E84" stroke="#747E84" stroke-width="1.5" stroke-linecap="round" stroke-linejoin="round"/>
</svg>
