<svg width="28" height="15" viewBox="0 0 28 15" fill="none" xmlns="http://www.w3.org/2000/svg">
<g filter="url(#filter0_b_1698_10788)">
<rect width="28" height="15" rx="7.5" fill="#FF5F5F"/>
<path d="M12.6133 3.02148H11.5293V7.83594H12.6133V5.89258H13.8535V5.01367H12.6133V3.02148ZM5.66016 4.58398H10.8945V3.75391H8.82422V2.97266H7.74023V3.75391H5.66016V4.58398ZM6.10938 6.30273C6.10938 7.20605 6.97363 7.74805 8.27734 7.74805C9.58594 7.74805 10.4307 7.20605 10.4355 6.30273C10.4307 5.42383 9.58594 4.8623 8.27734 4.85742C6.97363 4.8623 6.10938 5.42383 6.10938 6.30273ZM6.8418 9.01758H11.5293V9.60352H6.85156V11.791H12.8867V10.9805H7.92578V10.3555H12.6133V8.22656H6.8418V9.01758ZM7.16406 6.30273C7.15918 5.88281 7.59375 5.63379 8.27734 5.63867C8.96094 5.63379 9.40039 5.88281 9.40039 6.30273C9.40039 6.7373 8.96094 6.96191 8.27734 6.9668C7.59375 6.96191 7.15918 6.7373 7.16406 6.30273ZM21.6465 3.05078H20.5527V9.42773H21.6465V3.05078ZM14.4492 5.83398C14.4492 7.1377 15.4893 8.05078 16.832 8.05078C18.1748 8.05078 19.21 7.1377 19.2051 5.83398C19.21 4.5498 18.1748 3.63184 16.832 3.62695C15.4893 3.63184 14.4492 4.5498 14.4492 5.83398ZM15.5137 5.83398C15.5088 5.07227 16.0752 4.57422 16.832 4.57422C17.5693 4.57422 18.1406 5.07227 18.1406 5.83398C18.1406 6.61523 17.5693 7.10352 16.832 7.10352C16.0752 7.10352 15.5088 6.61523 15.5137 5.83398ZM15.8066 11.6934H21.8906V10.8145H16.9004V8.7832H15.8066V11.6934Z" fill="white"/>
</g>
<defs>
<filter id="filter0_b_1698_10788" x="-4" y="-4" width="36" height="23" filterUnits="userSpaceOnUse" color-interpolation-filters="sRGB">
<feFlood flood-opacity="0" result="BackgroundImageFix"/>
<feGaussianBlur in="BackgroundImageFix" stdDeviation="2"/>
<feComposite in2="SourceAlpha" operator="in" result="effect1_backgroundBlur_1698_10788"/>
<feBlend mode="normal" in="SourceGraphic" in2="effect1_backgroundBlur_1698_10788" result="shape"/>
</filter>
</defs>
</svg>
