<svg width="36" height="16" viewBox="0 0 36 16" fill="none" xmlns="http://www.w3.org/2000/svg">
<rect width="36" height="16" rx="8" fill="white"/>
<rect width="16" height="16" rx="8" fill="#258E37"/>
<path d="M7.94486 6.19267H4.6001V4.62207H10.5981H10.6404C10.6404 4.62207 8.9751 5.25843 7.98719 6.19267H7.94486Z" fill="white"/>
<path d="M11.6001 4.5V6.26015C11.6001 6.26015 9.82187 6.70696 9.59606 7.96615C9.59606 7.96615 9.22913 9.49613 9.31381 11.4865H6.66058C6.66058 11.4865 6.56179 8.83269 7.36622 7.32979C7.36622 7.32979 8.14243 5.58317 11.6001 4.5Z" fill="white"/>
<path d="M21.1113 4.63672H20.0127L18.4395 5.65625V6.70215L19.9248 5.75293H19.96V11H21.1113V4.63672ZM24.5479 9.97168H25.5146V8.31055H27.1846V7.33496H25.5146V5.67383H24.5479V7.33496H22.8867V8.31055H24.5479V9.97168ZM31.043 4.63672H29.9443L28.3711 5.65625V6.70215L29.8564 5.75293H29.8916V11H31.043V4.63672Z" fill="#258E37"/>
<rect x="0.5" y="0.5" width="35" height="15" rx="7.5" stroke="#258E37" stroke-opacity="0.3"/>
</svg>
