<svg width="72" height="72" viewBox="0 0 72 72" fill="none" xmlns="http://www.w3.org/2000/svg">
<rect width="72" height="72" rx="10" fill="#D9D9D9"/>
<path d="M44.55 42.6V28.95C44.55 27.8775 43.6725 27 42.6 27H28.95C27.8775 27 27 27.8775 27 28.95V42.6C27 43.6725 27.8775 44.55 28.95 44.55H42.6C43.6725 44.55 44.55 43.6725 44.55 42.6ZM32.7525 37.7055L34.8 40.1722L37.8225 36.282C38.0175 36.0285 38.4075 36.0285 38.6025 36.2917L42.0247 40.8547C42.2685 41.1765 42.0345 41.6347 41.6347 41.6347H29.9445C29.535 41.6347 29.3108 41.1667 29.5642 40.845L31.992 37.725C32.1772 37.4715 32.5477 37.4617 32.7525 37.7055Z" fill="black" fill-opacity="0.2"/>
</svg>
