<svg width="28" height="28" viewBox="0 0 28 28" fill="none" xmlns="http://www.w3.org/2000/svg">
<path d="M25.6666 14.0002C25.6666 7.57183 20.4283 2.3335 14 2.3335C7.57165 2.3335 2.33331 7.57183 2.33331 14.0002C2.33331 17.3835 3.79165 20.4285 6.10165 22.5635C6.10165 22.5752 6.10165 22.5752 6.08998 22.5868C6.20665 22.7035 6.34665 22.7968 6.46331 22.9018C6.53331 22.9602 6.59165 23.0185 6.66165 23.0652C6.87165 23.2402 7.10498 23.4035 7.32665 23.5668L7.55998 23.7302C7.78165 23.8818 8.01498 24.0218 8.25998 24.1502C8.34165 24.1968 8.43498 24.2552 8.51665 24.3018C8.74998 24.4302 8.99498 24.5468 9.25165 24.6518C9.34498 24.6985 9.43831 24.7452 9.53165 24.7802C9.78831 24.8852 10.045 24.9785 10.3016 25.0602C10.395 25.0952 10.4883 25.1302 10.5816 25.1535C10.8616 25.2352 11.1416 25.3052 11.4216 25.3752C11.5033 25.3985 11.585 25.4218 11.6783 25.4335C12.005 25.5035 12.3316 25.5502 12.67 25.5852C12.7166 25.5852 12.7633 25.5968 12.81 25.6085C13.2066 25.6435 13.6033 25.6668 14 25.6668C14.3966 25.6668 14.7933 25.6435 15.1783 25.6085C15.225 25.6085 15.2716 25.5968 15.3183 25.5852C15.6566 25.5502 15.9833 25.5035 16.31 25.4335C16.3916 25.4218 16.4733 25.3868 16.5666 25.3752C16.8466 25.3052 17.1383 25.2468 17.4066 25.1535C17.5 25.1185 17.5933 25.0835 17.6866 25.0602C17.9433 24.9668 18.2116 24.8852 18.4566 24.7802C18.55 24.7452 18.6433 24.6985 18.7366 24.6518C18.9816 24.5468 19.2266 24.4302 19.4716 24.3018C19.565 24.2552 19.6466 24.1968 19.7283 24.1502C19.9616 24.0102 20.195 23.8818 20.4283 23.7302C20.51 23.6835 20.58 23.6252 20.6616 23.5668C20.895 23.4035 21.1166 23.2402 21.3266 23.0652C21.3966 23.0068 21.455 22.9485 21.525 22.9018C21.6533 22.7968 21.7816 22.6918 21.8983 22.5868C21.8983 22.5752 21.8983 22.5752 21.8866 22.5635C24.2083 20.4285 25.6666 17.3835 25.6666 14.0002ZM19.7633 19.7985C16.6016 17.6752 11.4216 17.6752 8.23665 19.7985C7.72331 20.1368 7.30331 20.5335 6.95331 20.9652C5.11559 19.1128 4.08406 16.6095 4.08331 14.0002C4.08331 8.5285 8.52831 4.0835 14 4.0835C19.4716 4.0835 23.9166 8.5285 23.9166 14.0002C23.9166 16.7068 22.82 19.1685 21.0466 20.9652C20.7083 20.5335 20.2766 20.1368 19.7633 19.7985Z" fill="#4C5257"/>
<path d="M14 8.08496C11.585 8.08496 9.625 10.045 9.625 12.46C9.625 14.8283 11.48 16.7533 13.9417 16.8233H14.1517C15.2842 16.7861 16.3578 16.3101 17.1459 15.4959C17.934 14.6817 18.3747 13.5931 18.375 12.46C18.375 10.045 16.415 8.08496 14 8.08496Z" fill="#4C5257"/>
</svg>
