<svg width="36" height="16" viewBox="0 0 36 16" fill="none" xmlns="http://www.w3.org/2000/svg">
<rect width="36" height="16" rx="8" fill="white"/>
<rect width="16" height="16" rx="8" fill="#F9B233"/>
<path d="M7.85089 11.5C5.87078 11.5 5 10.3484 5 8.89194V7.31129C5 5.29032 6.43141 4.5 8.10139 4.5C10.1173 4.5 11 5.53871 11 6.57742C11 8.10161 9.35388 8.47419 8.63817 8.66613C8.42346 8.72258 7.66004 8.9371 7.48111 8.98226C6.80119 9.1629 6.61034 9.37742 6.61034 9.61452C6.61034 10.021 6.98012 10.371 7.85089 10.371C8.60239 10.371 9.16302 10.1226 9.24652 9.37742H10.833C10.6779 10.5629 9.92644 11.5 7.85089 11.5ZM8.02982 5.62903C7.14712 5.62903 6.57455 6.18226 6.57455 7.13064V8.12419C6.57455 8.12419 7.7674 7.79677 8.25646 7.65C8.67396 7.52581 9.41352 7.27742 9.41352 6.65645C9.42545 6.12581 8.96024 5.62903 8.02982 5.62903Z" fill="white"/>
<path d="M21.1113 4.63672H20.0127L18.4395 5.65625V6.70215L19.9248 5.75293H19.96V11H21.1113V4.63672ZM24.5479 9.97168H25.5146V8.31055H27.1846V7.33496H25.5146V5.67383H24.5479V7.33496H22.8867V8.31055H24.5479V9.97168ZM31.043 4.63672H29.9443L28.3711 5.65625V6.70215L29.8564 5.75293H29.8916V11H31.043V4.63672Z" fill="#D89319"/>
<rect x="0.5" y="0.5" width="35" height="15" rx="7.5" stroke="#F9B233" stroke-opacity="0.3"/>
</svg>
