<svg width="80" height="80" viewBox="0 0 80 80" fill="none" xmlns="http://www.w3.org/2000/svg">
<rect width="80" height="80" rx="10" fill="white"/>
<path d="M35.3086 51.6133C32.9473 51.6074 31.418 52.3984 31.418 53.6992C31.418 54.9941 32.9473 55.7676 35.3086 55.7617C37.6816 55.7676 39.1816 54.9941 39.1875 53.6992C39.1816 52.3984 37.6816 51.6074 35.3086 51.6133ZM30.4453 57.5781H40.1719V56.3828H30.4453V57.5781ZM31.5703 61.9609H39.0117V58.3281H31.5703V61.9609ZM32.9766 53.6992C32.9648 53.084 33.8145 52.7734 35.3086 52.7734C36.7793 52.7734 37.6406 53.084 37.6406 53.6992C37.6406 54.2969 36.7793 54.6016 35.3086 54.6016C33.8145 54.6016 32.9648 54.2969 32.9766 53.6992ZM33.0469 60.7656V59.5117H37.5469V60.7656H33.0469ZM50.5781 59.6641H48.1875V58.0352H49.6992V56.8281H43.4414V55.6445H49.4531V52.1055H41.9297V53.3008H47.9766V54.4492H41.9414V58.0352H43.3125V59.6641H40.8164V60.8945H50.5781V59.6641ZM44.7656 59.6641V58.0352H46.7227V59.6641H44.7656Z" fill="#4C5257"/>
<g clip-path="url(#clip0_1375_6536)">
<path d="M48.5199 16.5714H31.4799C30.8799 16.5714 30.3999 16.1143 30.3999 15.5429V13.0286C30.3999 12.4571 30.8799 12 31.4799 12H48.5199C49.1199 12 49.5999 12.4571 49.5999 13.0286V15.5429C49.5999 16.1143 49.1199 16.5714 48.5199 16.5714Z" fill="#BFBFBF"/>
<path d="M48.5199 43.9999H31.4799C30.8799 43.9999 30.3999 43.5428 30.3999 42.9713V40.457C30.3999 39.8856 30.8799 39.4285 31.4799 39.4285H48.5199C49.1199 39.4285 49.5999 39.8856 49.5999 40.457V42.9713C49.5999 43.5428 49.1199 43.9999 48.5199 43.9999Z" fill="#BFBFBF"/>
<path d="M50.8 39.4287H29.2C28.54 39.4287 28 38.9144 28 38.2858V17.7144C28 17.0858 28.54 16.5715 29.2 16.5715H50.8C51.46 16.5715 52 17.0858 52 17.7144V38.2858C52 38.9144 51.46 39.4287 50.8 39.4287Z" fill="#E25439"/>
<path d="M33.9999 23.4286H31.5999C30.9399 23.4286 30.3999 22.9143 30.3999 22.2857V20C30.3999 19.3715 30.9399 18.8572 31.5999 18.8572H33.9999C34.6599 18.8572 35.1999 19.3715 35.1999 20V22.2857C35.1999 22.9143 34.6599 23.4286 33.9999 23.4286Z" fill="#FF8A5E"/>
<path d="M33.3999 36.0001H32.1999C31.1799 36.0001 30.3999 35.2572 30.3999 34.2858V27.4286C30.3999 26.4572 31.1799 25.7144 32.1999 25.7144H33.3999C34.4199 25.7144 35.1999 26.4572 35.1999 27.4286V34.2858C35.1999 35.2572 34.4199 36.0001 33.3999 36.0001Z" fill="#FF8A5E"/>
</g>
<defs>
<clipPath id="clip0_1375_6536">
<rect width="24" height="32" fill="white" transform="translate(28 12)"/>
</clipPath>
</defs>
</svg>
