<svg width="28" height="28" viewBox="0 0 28 28" fill="none" xmlns="http://www.w3.org/2000/svg">
<path d="M23.38 7.95908L16.66 3.25741C14.8283 1.97408 12.0167 2.04408 10.255 3.40908L4.40999 7.97074C3.24332 8.88074 2.32166 10.7474 2.32166 12.2174V20.2674C2.32166 23.2424 4.73666 25.6691 7.71166 25.6691H20.2883C23.2633 25.6691 25.6783 23.2541 25.6783 20.2791V12.3691C25.6783 10.7941 24.6633 8.85741 23.38 7.95908ZM16.0417 21.8749C16.0417 22.3533 15.1667 22.7499 14 22.7499C12.8333 22.7499 11.9583 22.3533 11.9583 21.8749V17.5024C11.9583 17.0241 12.8333 16.6274 14 16.6274C15.1666 16.6274 16.0417 17.0241 16.0417 17.5024V21.8749Z" fill="#4C5257"/>
</svg>
