<svg width="18" height="18" viewBox="0 0 18 18" fill="none" xmlns="http://www.w3.org/2000/svg">
<path d="M12.3003 3H6.37047C5.74242 3.00201 5.14066 3.25239 4.69656 3.6965C4.25246 4.1406 4.00207 4.74236 4.00006 5.37041V14.0289C4.00006 15.1341 4.79274 15.6066 5.76072 15.0655L8.75613 13.3963C9.07625 13.221 9.59454 13.221 9.90704 13.3963L12.9025 15.0655C13.8704 15.6066 14.6631 15.1341 14.6631 14.0289V5.37041C14.6636 5.05963 14.6029 4.75178 14.4844 4.46446C14.366 4.17714 14.1921 3.91597 13.9726 3.69586C13.7532 3.47574 13.4926 3.301 13.2057 3.1816C12.9188 3.06221 12.6111 3.0005 12.3003 3Z" stroke="#747E84" stroke-width="1.5" stroke-linecap="round" stroke-linejoin="round"/>
</svg>
