<svg width="28" height="15" viewBox="0 0 28 15" fill="none" xmlns="http://www.w3.org/2000/svg">
<g filter="url(#filter0_b_1698_10790)">
<rect width="28" height="15" rx="7.5" fill="#625FFF"/>
<path d="M13.6973 7.15234H5.65039V8.03125H13.6973V7.15234ZM6.04102 5.90234L6.41211 6.76172C8.01367 6.5957 9.18555 5.95605 9.66406 5.0625C10.1426 5.95605 11.3291 6.5957 12.9355 6.76172L13.3164 5.90234C11.6416 5.74121 10.5869 5.07715 10.4258 4.34961H12.9746V3.46094H6.38281V4.34961H8.90723C8.74121 5.08691 7.67676 5.74121 6.04102 5.90234ZM6.58789 10.2383C6.58789 11.2783 7.74512 11.8594 9.66406 11.8594C11.5684 11.8594 12.7158 11.2783 12.7207 10.2383C12.7158 9.21289 11.5684 8.61719 9.66406 8.61719C7.74512 8.61719 6.58789 9.21289 6.58789 10.2383ZM7.69141 10.2383C7.68652 9.72559 8.37988 9.4668 9.66406 9.4668C10.9287 9.4668 11.627 9.72559 11.6367 10.2383C11.627 10.751 10.9287 11.0049 9.66406 11.0098C8.37988 11.0049 7.68652 10.751 7.69141 10.2383ZM21.6855 3.04102H20.6016V5.23828H19.0977V6.12695H20.6016V8.28516H21.6855V3.04102ZM14.2637 7.40625L14.8301 8.26562C15.8799 7.89453 16.6172 7.13281 17.0029 6.19531C17.3936 7.02539 18.0869 7.69922 19.0684 8.03125L19.6152 7.17188C18.248 6.71289 17.5352 5.62891 17.5352 4.55469V4.49609H19.3613V3.61719H14.5957V4.49609H16.4316V4.56445C16.4316 5.73145 15.6846 6.91797 14.2637 7.40625ZM15.6992 10.1895C15.6895 11.249 16.8369 11.8643 18.6973 11.8691C20.5674 11.8643 21.71 11.249 21.7148 10.1895C21.71 9.12988 20.5674 8.50977 18.6973 8.50977C16.8369 8.50977 15.6895 9.12988 15.6992 10.1895ZM16.7734 10.1895C16.7686 9.6377 17.4717 9.33984 18.6973 9.33984C19.9326 9.33984 20.6309 9.6377 20.6309 10.1895C20.6309 10.7363 19.9326 11.0342 18.6973 11.0293C17.4717 11.0342 16.7686 10.7363 16.7734 10.1895Z" fill="white"/>
</g>
<defs>
<filter id="filter0_b_1698_10790" x="-4" y="-4" width="36" height="23" filterUnits="userSpaceOnUse" color-interpolation-filters="sRGB">
<feFlood flood-opacity="0" result="BackgroundImageFix"/>
<feGaussianBlur in="BackgroundImageFix" stdDeviation="2"/>
<feComposite in2="SourceAlpha" operator="in" result="effect1_backgroundBlur_1698_10790"/>
<feBlend mode="normal" in="SourceGraphic" in2="effect1_backgroundBlur_1698_10790" result="shape"/>
</filter>
</defs>
</svg>
