<svg width="28" height="28" viewBox="0 0 28 28" fill="none" xmlns="http://www.w3.org/2000/svg">
<path d="M24.5 6.12516H16.3333C15.855 6.12516 15.4583 5.7285 15.4583 5.25016C15.4583 4.77183 15.855 4.37516 16.3333 4.37516H24.5C24.9783 4.37516 25.375 4.77183 25.375 5.25016C25.375 5.7285 24.9783 6.12516 24.5 6.12516ZM24.5 11.9585H16.3333C15.855 11.9585 15.4583 11.5618 15.4583 11.0835C15.4583 10.6052 15.855 10.2085 16.3333 10.2085H24.5C24.9783 10.2085 25.375 10.6052 25.375 11.0835C25.375 11.5618 24.9783 11.9585 24.5 11.9585ZM24.5 17.7918H16.3333C15.855 17.7918 15.4583 17.3952 15.4583 16.9168C15.4583 16.4385 15.855 16.0418 16.3333 16.0418H24.5C24.9783 16.0418 25.375 16.4385 25.375 16.9168C25.375 17.3952 24.9783 17.7918 24.5 17.7918ZM24.5 23.6252H3.5C3.02167 23.6252 2.625 23.2285 2.625 22.7502C2.625 22.2718 3.02167 21.8752 3.5 21.8752H24.5C24.9783 21.8752 25.375 22.2718 25.375 22.7502C25.375 23.2285 24.9783 23.6252 24.5 23.6252ZM9.24 4.0835H5.92667C4.29333 4.0835 3.5 4.87683 3.5 6.51016V15.3128C3.5 16.9461 4.29333 17.7395 5.92667 17.7395H9.25167C10.885 17.7395 11.6783 16.9461 11.6783 15.3128V6.51016C11.6667 4.87683 10.8733 4.0835 9.24 4.0835Z" fill="#4C5257"/>
</svg>
