<svg width="28" height="28" viewBox="0 0 28 28" fill="none" xmlns="http://www.w3.org/2000/svg">
<path d="M24.5 24.5002L20.0667 20.0668M11.6926 21.052C12.9217 21.052 14.1388 20.8099 15.2743 20.3396C16.4098 19.8692 17.4415 19.1798 18.3106 18.3108C19.1797 17.4417 19.8691 16.4099 20.3395 15.2744C20.8098 14.1389 21.0519 12.9218 21.0519 11.6928C21.0519 10.4637 20.8098 9.24664 20.3395 8.11112C19.8691 6.9756 19.1797 5.94385 18.3106 5.07476C17.4415 4.20567 16.4098 3.51627 15.2743 3.04593C14.1388 2.57558 12.9217 2.3335 11.6926 2.3335C9.2104 2.3335 6.82984 3.31956 5.07464 5.07476C3.31944 6.82996 2.33337 9.21053 2.33337 11.6928C2.33337 14.175 3.31944 16.5556 5.07464 18.3108C6.82984 20.066 9.2104 21.052 11.6926 21.052Z" stroke="#4C5257" stroke-width="2" stroke-linecap="round" stroke-linejoin="round"/>
</svg>
