<svg width="172" height="105" viewBox="0 0 172 105" fill="none" xmlns="http://www.w3.org/2000/svg">
<g clip-path="url(#clip0_3018_8109)">
<path d="M123.136 6.8H120.545V4.25C120.545 3.7825 120.157 3.4 119.682 3.4H117.091V0.85C117.091 0.3825 116.702 0 116.227 0H55.7727C55.2977 0 54.9091 0.3825 54.9091 0.85V3.4H52.3182C51.8432 3.4 51.4545 3.7825 51.4545 4.25V6.8H48.8636C48.3886 6.8 48 7.1825 48 7.65V36.55C48 37.0175 48.3886 37.4 48.8636 37.4H51.4545V39.95C51.4545 40.4175 51.8432 40.8 52.3182 40.8H54.9091V43.35C54.9091 43.8175 55.2977 44.2 55.7727 44.2H92.9091V46.75C92.9091 47.2175 93.2977 47.6 93.7727 47.6H99.8182V50.15C99.8182 50.6175 100.207 51 100.682 51H112.773C113.248 51 113.636 50.6175 113.636 50.15V48.45C113.636 47.9825 113.248 47.6 112.773 47.6H110.182V44.2H116.227C116.702 44.2 117.091 43.8175 117.091 43.35V40.8H119.682C120.157 40.8 120.545 40.4175 120.545 39.95V37.4H123.136C123.611 37.4 124 37.0175 124 36.55V7.65C124 7.1825 123.611 6.8 123.136 6.8Z" fill="#E2E7EA"/>
</g>
<g opacity="0.5">
<rect x="57.6191" y="10.916" width="20.74" height="22.9232" rx="1.3" fill="#939CA3"/>
<rect x="82.7256" y="10.916" width="32.2016" height="4.91212" rx="1.3" fill="#939CA3"/>
<rect x="82.7256" y="18.5571" width="32.2016" height="4.91212" rx="1.3" fill="#939CA3"/>
<rect x="82.7256" y="27.2896" width="19.6485" height="4.91212" rx="1.3" fill="#939CA3"/>
</g>
<path d="M20.1094 66.2656V69.9062H22.0781V71.3594H20.1094V75.6094H18.375V66.2656H20.1094ZM9.125 70.625C9.11719 68.5938 10.7578 67.2031 12.9375 67.1875C15.1094 67.2031 16.7344 68.5938 16.75 70.625C16.7344 72.6328 15.1094 74.0391 12.9375 74.0312C10.7578 74.0391 9.11719 72.6328 9.125 70.625ZM10.2344 78.9531C13.0625 78.5547 14.7969 77.0391 14.7969 75.3281V74.9375H16.5312V75.3281C16.5156 77.0391 18.2656 78.5547 21.1094 78.9531L20.4219 80.3125C18.2344 79.9609 16.5312 78.9609 15.6797 77.5547C14.8125 78.9609 13.1094 79.9609 10.9219 80.3125L10.2344 78.9531ZM10.8281 70.625C10.8203 71.7969 11.7188 72.5625 12.9375 72.5625C14.1406 72.5625 15.0391 71.7969 15.0469 70.625C15.0391 69.4219 14.1406 68.6641 12.9375 68.6719C11.7188 68.6641 10.8203 69.4219 10.8281 70.625ZM25.7031 67.6875L25.5312 75.6719H23.7656L23.5781 67.6875H25.7031ZM23.4375 77.9062C23.4297 77.25 23.9844 76.7109 24.6562 76.7031C25.3047 76.7109 25.8594 77.25 25.8594 77.9062C25.8594 78.5781 25.3047 79.125 24.6562 79.125C23.9844 79.125 23.4297 78.5781 23.4375 77.9062ZM44.125 72.8125V74.2344H31.2344V72.8125H44.125ZM32.7344 77.7812C32.7344 76.1406 34.5859 75.2109 37.6562 75.2188C40.7031 75.2109 42.5391 76.1406 42.5469 77.7812C42.5391 79.4453 40.7031 80.375 37.6562 80.375C34.5859 80.375 32.7344 79.4453 32.7344 77.7812ZM32.8125 71.7031V66.7188H42.5625V68.125H34.5469V70.3125H42.6406V71.7031H32.8125ZM34.5 77.7812C34.4922 78.6172 35.6016 79.0312 37.6562 79.0312C39.6797 79.0312 40.7969 78.6172 40.8125 77.7812C40.7969 76.9844 39.6797 76.5469 37.6562 76.5469C35.6016 76.5469 34.4922 76.9844 34.5 77.7812ZM57.9531 73.9062V75.3125H45.0469V73.9062H50.6406V72.7344H46.6875V68.9844H54.625V67.9375H46.6406V66.5781H56.3594V70.25H48.4062V71.375H56.6406V72.7344H52.3594V73.9062H57.9531ZM46.4844 77.5781V76.2031H56.4375V80.2969H54.6875V77.5781H46.4844ZM67.1094 70.7031V72.0938H64.4844V73.6953C65.6641 73.6484 66.8359 73.5703 67.9375 73.4531L68.0625 74.7031C65.0625 75.1172 61.8203 75.1953 59.1875 75.2031L58.9531 73.8125C60.1172 73.8047 61.4062 73.7969 62.7344 73.7578V72.0938H60.1719V67.1406H67V68.5469H61.9219V70.7031H67.1094ZM61.2031 80.1094V76.0938H62.9531V78.7031H71.0781V80.1094H61.2031ZM68.9219 76.875V66.2656H70.6719V76.875H68.9219ZM88.2812 66.2656V80.4062H86.5625V66.2656H88.2812ZM77.2812 68.9062V67.5H83.9375V72.7969H79.0781V75.6406C81.3047 75.625 83.2188 75.5078 85.4219 75.1406L85.5781 76.5625C83.1797 76.9766 81.0703 77.0703 78.5312 77.0625H77.2969V71.4219H82.1719V68.9062H77.2812ZM103.234 74.3438V75.75H100.203V80.3906H98.4688V75.75H95.125V80.3906H93.3438V75.75H90.3281V74.3438H103.234ZM91.8906 72.9062V66.8125H93.6094V68.5H99.9219V66.8125H101.672V72.9062H91.8906ZM93.6094 71.5156H99.9219V69.8594H93.6094V71.5156ZM115.234 66.2656V71.7812H117.328V73.2344H115.234V80.3594H113.5V66.2656H115.234ZM104.094 76.5C107.531 74.7812 109.391 72.3906 109.734 69.1719H104.859V67.7344H111.5C111.492 71.8828 109.773 75.5312 105.078 77.8438L104.094 76.5ZM125 74.5312V76.0469H126.859V74.5312H128.469V79.0156C130.133 78.3125 130.891 76.8984 130.891 75.5469V74.4219H132.625V75.5469C132.617 77.0078 133.383 78.4375 135.125 79.0312L134.234 80.3281C132.984 79.875 132.188 79.0234 131.742 77.9531C131.273 78.9922 130.469 79.8594 129.297 80.3281L128.469 79.1016V80.2188H123.375V74.5312H125ZM121.984 70.125C121.984 68.1953 123.555 66.8359 125.719 66.8438C127.539 66.8359 128.977 67.8594 129.336 69.3906H131.891V66.2656H133.625V73.75H131.891V70.8281H129.344C129 72.3984 127.555 73.4375 125.719 73.4375C123.555 73.4375 121.984 72.0859 121.984 70.125ZM123.641 70.125C123.641 71.2656 124.5 72.0156 125.719 72.0156C126.906 72.0156 127.758 71.2656 127.766 70.125C127.758 69.0078 126.906 68.2734 125.719 68.2812C124.5 68.2734 123.641 69.0078 123.641 70.125ZM125 78.8906H126.859V77.3438H125V78.8906ZM139.484 67.2969C141.391 67.2969 142.805 68.8906 143.055 71.4688H145.75V66.2656H147.469V80.4062H145.75V72.875H143.07C142.883 75.6016 141.445 77.2812 139.484 77.2812C137.359 77.2812 135.852 75.3516 135.859 72.2812C135.852 69.2344 137.359 67.2969 139.484 67.2969ZM137.531 72.2812C137.523 74.4531 138.32 75.7109 139.484 75.7188C140.656 75.7109 141.445 74.4531 141.453 72.2812C141.445 70.125 140.656 68.8594 139.484 68.8594C138.32 68.8594 137.523 70.125 137.531 72.2812ZM162.359 77.25V78.6719H149.453V77.25H152.438V73.6797C151.312 73.0312 150.633 72.0156 150.641 70.7656C150.633 68.5156 152.836 67.0312 155.875 67.0312C158.93 67.0312 161.148 68.5156 161.141 70.7656C161.148 72 160.484 72.9922 159.391 73.6406V77.25H162.359ZM152.344 70.7656C152.336 72.2109 153.766 73.1328 155.875 73.125C157.977 73.1328 159.438 72.2109 159.438 70.7656C159.438 69.2969 157.977 68.3984 155.875 68.4062C153.766 68.3984 152.336 69.2969 152.344 70.7656ZM154.156 77.25H157.625V74.3047C157.086 74.4219 156.5 74.4844 155.875 74.4844C155.266 74.4844 154.688 74.4219 154.156 74.3125V77.25Z" fill="#4C5257"/>
<path d="M4.63477 91.5645C4.6416 93.0684 5.8584 94.4697 7.64258 95.0234L7.13672 95.8574C5.74902 95.4131 4.66895 94.4766 4.13574 93.2939C3.61621 94.627 2.50195 95.6797 1.06641 96.1855L0.546875 95.3242C2.33105 94.7295 3.5752 93.2324 3.58203 91.5645V91.2773H0.833984V90.4023H3.58203V88.9121H4.66211V90.4023H7.38281V91.2773H4.63477V91.5645ZM1.96875 100.205C4.08789 99.8359 6.08398 98.5029 6.09766 96.8145V96.5547H7.19141V96.8145C7.18457 98.5371 9.15332 99.8428 11.334 100.205L10.8828 101.053C9.04395 100.725 7.35547 99.7744 6.63086 98.3525C5.89941 99.7607 4.2041 100.731 2.36523 101.053L1.96875 100.205ZM7.01367 93.3145V92.4121H9.48828V88.9531H10.5684V97.3887H9.48828V93.3145H7.01367ZM26.1816 88.9668V97.9629H25.1016V93.2871H22.2305V95.8848H16.7207V89.7734H17.7871V91.9336H21.1777V89.7734H22.2305V92.3848H25.1016V88.9668H26.1816ZM17.7871 94.9961H21.1777V92.7812H17.7871V94.9961ZM18.3203 100.848V97.0742H19.4004V99.9453H26.4551V100.848H18.3203ZM38.7598 88.9531V101.107H37.7344V94.8184H36.3809V100.492H35.3691V89.2129H36.3809V93.9297H37.7344V88.9531H38.7598ZM27.959 97.4434C29.374 96.3359 29.668 94.1143 29.668 92.6172V91.3184H28.3965V90.4434H31.377V91.3184H30.625V92.6172C30.6113 93.6221 30.6797 95.5566 31.5752 96.9033C32.4434 95.6387 32.498 93.8066 32.5117 92.6172V91.3184H31.7598V90.4434H34.6582V91.3184H33.4551V92.6172C33.4482 94.1621 33.749 96.3428 35.1641 97.4434L34.5352 98.1953C33.7422 97.5664 33.2705 96.5684 33.0107 95.4951C32.7852 96.5957 32.3613 97.6484 31.5547 98.3184C30.7617 97.6348 30.3379 96.5479 30.1123 95.4541C29.8525 96.541 29.3877 97.5527 28.6016 98.1953L27.959 97.4434ZM51.4336 98.7012V99.6035H40.3047V98.7012H45.3086V96.4043H41.6992V92.6582H48.9727V90.7441H41.6719V89.8555H50.0254V93.5332H42.7656V95.5156H50.3125V96.4043H46.3613V98.7012H51.4336ZM65.9531 88.9531V101.135H64.8867V88.9531H65.9531ZM56.6016 90.9766V90.0879H62.2617V94.4082H57.7227V97.2793C59.7393 97.2861 61.5371 97.1904 63.7109 96.8418L63.8203 97.7441C61.585 98.0928 59.7393 98.1816 57.6406 98.1816H56.6289V93.5332H61.1816V90.9766H56.6016ZM79.1328 96.0488V96.9512H76.2891V101.107H75.2227V96.9512H71.9141V101.107H70.8203V96.9512H68.0039V96.0488H79.1328ZM69.4258 94.6133V89.4453H70.4922V91.0996H76.6172V89.4453H77.6973V94.6133H69.4258ZM70.4922 93.7383H76.6172V91.9609H70.4922V93.7383ZM91.2324 94.5996V95.4473H80.1035V94.5996H91.2324ZM81.4434 97.2246V96.418H89.8379V99.002H82.5371V100.164H90.2344V100.943H81.457V98.2637H88.7715V97.2246H81.4434ZM81.5117 90.1016V89.3223H89.7969V91.8379H82.6191V92.9043H90.0156V93.6836H81.5527V91.0996H88.7168V90.1016H81.5117ZM106.818 94.7363V95.6387H95.7305V94.7363H106.818ZM97.0703 98.8926C97.0635 97.498 98.6426 96.7051 101.268 96.7051C103.872 96.7051 105.438 97.498 105.451 98.8926C105.438 100.301 103.872 101.08 101.268 101.08C98.6426 101.08 97.0635 100.301 97.0703 98.8926ZM97.1387 93.5742V89.4453H105.438V90.3477H98.1914V92.6992H105.52V93.5742H97.1387ZM98.1641 98.8926C98.1504 99.7471 99.3193 100.232 101.268 100.232C103.195 100.232 104.364 99.7471 104.371 98.8926C104.364 98.0449 103.195 97.5527 101.268 97.5391C99.3193 97.5527 98.1504 98.0449 98.1641 98.8926ZM118.945 95.6523V96.541H107.816V95.6523H112.848V94.3672H109.266V91.4004H116.43V90.1426H109.225V89.2676H117.51V92.207H110.332V93.5059H117.77V94.3672H113.9V95.6523H118.945ZM109.061 98.3457V97.4707H117.578V100.998H116.498V98.3457H109.061ZM126 91.0586V91.9336H119.902V91.0586H122.432V89.3223H123.498V91.0586H126ZM120.34 95.5156C120.34 93.9023 121.44 92.7607 122.951 92.7539C124.482 92.7607 125.576 93.9023 125.59 95.5156C125.576 97.1494 124.482 98.2979 122.951 98.3047C121.44 98.2979 120.34 97.1494 120.34 95.5156ZM121.297 95.5156C121.297 96.5957 121.987 97.3682 122.951 97.3613C123.922 97.3682 124.633 96.5957 124.633 95.5156C124.633 94.4492 123.922 93.6699 122.951 93.6562C121.987 93.6699 121.297 94.4492 121.297 95.5156ZM126.629 100.506V89.2539H127.641V94.0801H129.254V88.9531H130.279V101.107H129.254V94.9688H127.641V100.506H126.629ZM143.158 98.6602V99.5488H132.029V98.6602H137.033V96.0352H133.342V89.8145H134.422V92.0156H140.738V89.8145H141.791V96.0352H138.086V98.6602H143.158ZM134.422 95.1602H140.738V92.8906H134.422V95.1602ZM147.738 92.4121C147.738 94.3467 148.682 96.4316 150.295 97.3887L149.68 98.2227C148.504 97.5117 147.663 96.2129 147.239 94.7295C146.795 96.3496 145.893 97.7441 144.676 98.4824L143.992 97.6758C145.674 96.6914 146.699 94.5381 146.699 92.4531V90.1016H147.738V92.4121ZM148.955 94.2305V93.3145H151.02V89.2129H152.031V100.492H151.02V94.2305H148.955ZM153.508 101.107V88.9531H154.547V101.107H153.508ZM167.357 98.6465V99.5488H156.229V98.6465H158.99V95.3721C157.951 94.832 157.322 93.957 157.322 92.8496C157.322 90.9697 159.168 89.7324 161.766 89.7188C164.363 89.7324 166.209 90.9697 166.209 92.8496C166.209 93.9365 165.601 94.7979 164.596 95.3379V98.6465H167.357ZM158.361 92.8496C158.354 94.21 159.77 95.1191 161.766 95.1191C163.741 95.1191 165.17 94.21 165.17 92.8496C165.17 91.4893 163.741 90.5938 161.766 90.6074C159.77 90.5938 158.354 91.4893 158.361 92.8496ZM160.043 98.6465H163.516V95.7549C162.989 95.8916 162.401 95.9668 161.766 95.9668C161.144 95.9668 160.562 95.8984 160.043 95.7617V98.6465ZM169.613 100.082C169.135 100.075 168.725 99.6787 168.738 99.1934C168.725 98.7148 169.135 98.3184 169.613 98.3184C170.099 98.3184 170.495 98.7148 170.488 99.1934C170.495 99.6787 170.099 100.075 169.613 100.082Z" fill="#747E84"/>
<defs>
<clipPath id="clip0_3018_8109">
<rect width="76" height="51" fill="white" transform="translate(48)"/>
</clipPath>
</defs>
</svg>
