<svg width="76" height="51" viewBox="0 0 76 51" fill="none" xmlns="http://www.w3.org/2000/svg">
<g clip-path="url(#clip0_3018_8105)">
<path d="M75.1364 6.8H72.5455V4.25C72.5455 3.7825 72.1568 3.4 71.6818 3.4H69.0909V0.85C69.0909 0.3825 68.7023 0 68.2273 0H7.77273C7.29773 0 6.90909 0.3825 6.90909 0.85V3.4H4.31818C3.84318 3.4 3.45455 3.7825 3.45455 4.25V6.8H0.863636C0.388636 6.8 0 7.1825 0 7.65V36.55C0 37.0175 0.388636 37.4 0.863636 37.4H3.45455V39.95C3.45455 40.4175 3.84318 40.8 4.31818 40.8H6.90909V43.35C6.90909 43.8175 7.29773 44.2 7.77273 44.2H44.9091V46.75C44.9091 47.2175 45.2977 47.6 45.7727 47.6H51.8182V50.15C51.8182 50.6175 52.2068 51 52.6818 51H64.7727C65.2477 51 65.6364 50.6175 65.6364 50.15V48.45C65.6364 47.9825 65.2477 47.6 64.7727 47.6H62.1818V44.2H68.2273C68.7023 44.2 69.0909 43.8175 69.0909 43.35V40.8H71.6818C72.1568 40.8 72.5455 40.4175 72.5455 39.95V37.4H75.1364C75.6114 37.4 76 37.0175 76 36.55V7.65C76 7.1825 75.6114 6.8 75.1364 6.8Z" fill="#E2E7EA"/>
</g>
<g opacity="0.5">
<rect x="9.61914" y="10.916" width="20.74" height="22.9232" rx="1.3" fill="#939CA3"/>
<rect x="34.7256" y="10.916" width="32.2016" height="4.91212" rx="1.3" fill="#939CA3"/>
<rect x="34.7256" y="18.5571" width="32.2016" height="4.91212" rx="1.3" fill="#939CA3"/>
<rect x="34.7256" y="27.2896" width="19.6485" height="4.91212" rx="1.3" fill="#939CA3"/>
</g>
<defs>
<clipPath id="clip0_3018_8105">
<rect width="76" height="51" fill="white"/>
</clipPath>
</defs>
</svg>
