<svg width="80" height="80" viewBox="0 0 80 80" fill="none" xmlns="http://www.w3.org/2000/svg">
<rect width="80" height="80" rx="10" fill="white"/>
<g clip-path="url(#clip0_1375_6519)">
<path d="M33.7143 17.4737V20.421H30.8214C30.2911 20.421 29.8571 20.8631 29.8571 21.4035V24.3509H26.9643C26.4339 24.3509 26 24.793 26 25.3333V28.2807H53V24.3509V20.421V17.4737C53 16.9333 52.5661 16.4912 52.0357 16.4912H34.6786C34.1482 16.4912 33.7143 16.9333 33.7143 17.4737Z" fill="#EDEBEB"/>
<path d="M52.0357 44.0001H26.9643C26.4339 44.0001 26 43.558 26 43.0176V28.2808H53V43.0176C53 43.558 52.5661 44.0001 52.0357 44.0001Z" fill="#E2CFC0"/>
<path d="M47.3106 22.8772H43.2606C42.5374 22.8772 41.9106 22.2386 41.9106 21.5018V17.3754C41.9106 16.6386 42.5374 16 43.2606 16H47.3106C48.0339 16 48.6606 16.6386 48.6606 17.3754V21.5018C48.6606 22.2386 48.0339 22.8772 47.3106 22.8772Z" fill="#FF2C4F"/>
<path d="M53 28.2808H26V32.2106H53V28.2808Z" fill="#D6D2D2"/>
<path d="M53 36.1404H26V40.0702H53V36.1404Z" fill="#FF8A8A"/>
<path d="M45.2859 20.421H43.3574C42.827 20.421 42.3931 19.9789 42.3931 19.4386V17.4737C42.3931 16.9333 42.827 16.4912 43.3574 16.4912H45.2859C45.8163 16.4912 46.2502 16.9333 46.2502 17.4737V19.4386C46.2502 19.9789 45.8163 20.421 45.2859 20.421Z" fill="#FF8A8A"/>
<path d="M34.1966 26.3158H32.268C31.7376 26.3158 31.3037 25.8737 31.3037 25.3334V23.3684C31.3037 22.8281 31.7376 22.386 32.268 22.386H34.1966C34.7269 22.386 35.1609 22.8281 35.1609 23.3684V25.3334C35.1609 25.8737 34.7269 26.3158 34.1966 26.3158Z" fill="white"/>
</g>
<path d="M27.3691 52.4805H21.8379V53.6758H25.8809C25.8691 54.6191 25.8457 55.7617 25.5996 57.3086L27.0762 57.4258C27.3574 55.6504 27.3574 54.3379 27.3691 53.3359V52.4805ZM21.2754 58.7031L21.416 59.8984C23.2852 59.9102 25.6992 59.8691 27.8965 59.5L27.8027 58.3867C26.8184 58.5156 25.7578 58.5918 24.709 58.6328V55.5391H23.2324V58.6797C22.541 58.6973 21.873 58.7031 21.2754 58.7031ZM28.3066 62.0781H29.8184V56.9453H31.2715V55.7031H29.8184V51.4141H28.3066V62.0781ZM35.6777 54.3203V53.6641H37.8223V52.4453H31.916V53.6641H34.1777V54.3203C34.166 56.084 33.2695 58.0645 31.4941 58.8906L32.3613 60.0742C33.5918 59.4941 34.4707 58.2988 34.9453 56.8926C35.4258 58.1699 36.2695 59.2598 37.459 59.8047L38.291 58.6328C36.5391 57.8184 35.6719 55.9434 35.6777 54.3203ZM38.6543 62.0781H40.1543V56.7344H41.7246V55.4805H40.1543V51.4141H38.6543V62.0781ZM45.0645 61.1289C45.8086 61.123 46.6172 60.9121 47.2383 60.4141L47.7598 61H49.5762L48.2988 59.5352C48.7676 58.9141 49.0664 58.0234 49.0605 56.875H47.6191C47.6191 57.4258 47.4844 57.9238 47.2617 58.3398L45.8438 56.7109L46.3418 56.3477C47.0566 55.8379 47.4727 55.1934 47.4668 54.3906C47.4727 53.3184 46.6348 52.4043 45.2754 52.3984C43.8867 52.4043 42.9668 53.3477 42.9668 54.5781C42.9668 55.3281 43.3359 55.9551 43.7812 56.5234C42.8555 57.1621 42.2285 57.7598 42.2285 58.75C42.2285 60.0859 43.3066 61.123 45.0645 61.1289ZM43.916 58.6562C43.916 58.3281 44.1387 57.9473 44.6191 57.6016L44.6777 57.5605L46.3008 59.3711C45.9375 59.5996 45.5391 59.7227 45.1465 59.7227C44.3965 59.7285 43.916 59.2656 43.916 58.6562ZM44.4551 54.6016C44.4609 54.168 44.7891 53.8047 45.2871 53.8047C45.7852 53.7988 46.0781 54.1562 46.0723 54.4844C46.0781 54.8535 45.8789 55.1523 45.4512 55.4219L45.0059 55.7207C44.6836 55.3105 44.4609 54.9531 44.4551 54.6016ZM58.7402 51.4141H57.2871V57.8477H58.7402V55.1406H59.8184V53.9219H58.7402V51.4141ZM50.0215 57.168H53.127V52.1289H51.9199V53.5117H51.2285V52.1289H50.0215V57.168ZM51.2285 55.9961V54.6719H51.9199V55.9961H51.2285ZM51.2988 60.0391C51.2988 61.334 52.7344 62.084 55.0605 62.0781C57.3691 62.084 58.8105 61.334 58.8105 60.0391C58.8105 58.7617 57.3691 58.0234 55.0605 58.0234C52.7344 58.0234 51.2988 58.7617 51.2988 60.0391ZM52.834 60.0391C52.8281 59.4473 53.584 59.166 55.0605 59.1602C56.5137 59.166 57.293 59.4473 57.2988 60.0391C57.293 60.625 56.5137 60.9414 55.0605 60.9414C53.584 60.9414 52.8281 60.625 52.834 60.0391ZM53.584 57.168H56.6777V52.1289H55.459V53.5117H54.791V52.1289H53.584V57.168ZM54.791 55.9961V54.6719H55.459V55.9961H54.791Z" fill="#4C5257"/>
<defs>
<clipPath id="clip0_1375_6519">
<rect width="27" height="28" fill="white" transform="translate(26 16)"/>
</clipPath>
</defs>
</svg>
