<svg width="72" height="72" viewBox="0 0 72 72" fill="none" xmlns="http://www.w3.org/2000/svg">
<rect width="72" height="72" rx="10" fill="#F3F6F8"/>
<rect x="0.5" y="0.5" width="71" height="71" rx="9.5" stroke="black" stroke-opacity="0.05"/>
<path d="M14.7031 51.0293V48.9375H13.4043V51.0293C13.3975 53.2715 12.126 55.623 10.2461 56.5254L11.0527 57.5781C12.4473 56.8535 13.5205 55.3838 14.0674 53.6475C14.6074 55.2812 15.6396 56.6484 16.9727 57.3457L17.7793 56.3066C15.9541 55.418 14.6895 53.1963 14.7031 51.0293ZM18.6953 60.1621H19.9941V53.9004H21.9629V52.793H19.9941V47.9121H18.6953V60.1621ZM27.0898 50.4688V49.9355H29.7832V48.8828H23.0293V49.9355H25.7773V50.4688C25.7705 52.1436 24.5947 53.7295 22.6875 54.3789L23.3574 55.4043C24.8135 54.8916 25.9072 53.8389 26.4541 52.5059C27.0146 53.7295 28.0742 54.6934 29.4824 55.1582L30.1523 54.1465C28.2588 53.5449 27.0898 52.0547 27.0898 50.4688ZM24.6973 59.9023H33.0781V58.8496H26.0098V56.0195H24.6973V59.9023ZM31.4102 56.8672H32.709V47.9258H31.4102V56.8672ZM49.2383 55.2949H38.0684V56.3613H43.0039V60.1758H44.2891V56.3613H49.2383V55.2949ZM38.7246 53.4082L39.2031 54.4473C41.1787 54.1738 42.8604 53.2646 43.6533 52C44.4463 53.251 46.1211 54.1738 48.0898 54.4473L48.5547 53.4082C46.2236 53.1143 44.3711 51.8018 44.3027 50.4414H48.1719V49.3887H44.2891V47.9121H43.0039V49.3887H39.1211V50.4414H43.0039C42.9219 51.8154 41.0488 53.1143 38.7246 53.4082ZM59.7109 47.9121H58.4121V60.1484H59.7109V53.873H61.6113V52.793H59.7109V47.9121ZM50.1816 56.8809L50.9062 57.8926C54.9395 55.9033 56.498 52.7383 56.5117 49.1973H50.7969V50.2773H55.1855C54.9189 53.1348 53.251 55.3496 50.1816 56.8809Z" fill="#939CA3"/>
<path d="M33 24C33.5304 24 34.0391 23.7893 34.4142 23.4142C34.7893 23.0391 35 22.5304 35 22C35 21.4696 34.7893 20.9609 34.4142 20.5858C34.0391 20.2107 33.5304 20 33 20C32.4696 20 31.9609 20.2107 31.5858 20.5858C31.2107 20.9609 31 21.4696 31 22C31 22.5304 31.2107 23.0391 31.5858 23.4142C31.9609 23.7893 32.4696 24 33 24Z" stroke="#939CA3" stroke-width="1.5" stroke-linecap="round" stroke-linejoin="round"/>
<path d="M37 16H33C28 16 26 18 26 23V29C26 34 28 36 33 36H39C44 36 46 34 46 29V24" stroke="#939CA3" stroke-width="1.5" stroke-linecap="round" stroke-linejoin="round"/>
<path d="M39.75 19H45.25M42.5 21.75V16.25" stroke="#939CA3" stroke-width="1.5" stroke-linecap="round"/>
<path d="M26.6699 32.9501L31.5999 29.6401C32.3899 29.1101 33.5299 29.1701 34.2399 29.7801L34.5699 30.0701C35.3499 30.7401 36.6099 30.7401 37.3899 30.0701L41.5499 26.5001C42.3299 25.8301 43.5899 25.8301 44.3699 26.5001L45.9999 27.9001" stroke="#939CA3" stroke-width="1.5" stroke-linecap="round" stroke-linejoin="round"/>
</svg>
