<svg width="16" height="16" viewBox="0 0 16 16" fill="none" xmlns="http://www.w3.org/2000/svg">
<rect width="16" height="16" rx="8" fill="#0071B9"/>
<path fill-rule="evenodd" clip-rule="evenodd" d="M7.92505 10.184V7.60962H5.83292L5.98173 8.5802H6.84834V9.51844C6.64701 9.63398 6.45005 9.68945 6.17431 9.68945C5.31207 9.68945 4.87877 8.99155 4.87877 7.99785C4.87877 7.00878 5.29894 6.33861 6.16118 6.33861C6.67765 6.33861 7.11971 6.53735 7.49612 6.79155L7.66244 5.64995C7.25977 5.41424 6.7433 5.26172 6.13054 5.26172C4.58552 5.26172 3.63574 6.37096 3.63574 8.0071C3.63574 9.63861 4.51111 10.7386 6.0999 10.7386C6.78707 10.7386 7.4042 10.5399 7.92505 10.184Z" fill="white"/>
<path fill-rule="evenodd" clip-rule="evenodd" d="M12.0003 9.04666C12.0003 8.20548 11.567 7.808 10.4815 7.38741C9.85562 7.13783 9.71993 7.0038 9.71993 6.73573C9.71993 6.49078 9.89938 6.32439 10.2802 6.32439C10.661 6.32439 11.1337 6.47691 11.5845 6.7496L11.7727 5.6496C11.335 5.42775 10.9192 5.29834 10.267 5.29834C9.31289 5.29834 8.55569 5.8391 8.55569 6.86052C8.55569 7.73405 8.989 8.07607 9.9913 8.48279C10.696 8.76472 10.8404 8.90338 10.8404 9.2038C10.8404 9.51809 10.5953 9.67985 10.2364 9.67985C9.73744 9.67985 9.16408 9.48111 8.65198 9.18993L8.47253 10.3084C8.98025 10.5534 9.54486 10.7059 10.2189 10.7059C11.2037 10.7013 12.0003 10.1975 12.0003 9.04666Z" fill="white"/>
</svg>
