<svg width="37" height="16" viewBox="0 0 37 16" fill="none" xmlns="http://www.w3.org/2000/svg">
<rect width="37" height="16" rx="8" fill="white"/>
<rect width="16" height="16" rx="8" fill="#F9B233"/>
<path d="M7.85089 11.5C5.87078 11.5 5 10.3484 5 8.89194V7.31129C5 5.29032 6.43141 4.5 8.10139 4.5C10.1173 4.5 11 5.53871 11 6.57742C11 8.10161 9.35388 8.47419 8.63817 8.66613C8.42346 8.72258 7.66004 8.9371 7.48111 8.98226C6.80119 9.1629 6.61034 9.37742 6.61034 9.61452C6.61034 10.021 6.98012 10.371 7.85089 10.371C8.60239 10.371 9.16302 10.1226 9.24652 9.37742H10.833C10.6779 10.5629 9.92644 11.5 7.85089 11.5ZM8.02982 5.62903C7.14712 5.62903 6.57455 6.18226 6.57455 7.13064V8.12419C6.57455 8.12419 7.7674 7.79677 8.25646 7.65C8.67396 7.52581 9.41352 7.27742 9.41352 6.65645C9.42545 6.12581 8.96024 5.62903 8.02982 5.62903Z" fill="white"/>
<path d="M24.5303 3.81934H23.5547V8.15234H24.5303V6.40332H25.6465V5.6123H24.5303V3.81934ZM18.2725 5.22559H22.9834V4.47852H21.1201V3.77539H20.1445V4.47852H18.2725V5.22559ZM18.6768 6.77246C18.6768 7.58545 19.4546 8.07324 20.6279 8.07324C21.8057 8.07324 22.5659 7.58545 22.5703 6.77246C22.5659 5.98145 21.8057 5.47607 20.6279 5.47168C19.4546 5.47607 18.6768 5.98145 18.6768 6.77246ZM19.3359 9.21582H23.5547V9.74316H19.3447V11.7119H24.7764V10.9824H20.3115V10.4199H24.5303V8.50391H19.3359V9.21582ZM19.626 6.77246C19.6216 6.39453 20.0127 6.17041 20.6279 6.1748C21.2432 6.17041 21.6387 6.39453 21.6387 6.77246C21.6387 7.16357 21.2432 7.36572 20.6279 7.37012C20.0127 7.36572 19.6216 7.16357 19.626 6.77246ZM32.6602 3.8457H31.6758V9.58496H32.6602V3.8457ZM26.1826 6.35059C26.1826 7.52393 27.1187 8.3457 28.3271 8.3457C29.5356 8.3457 30.4673 7.52393 30.4629 6.35059C30.4673 5.19482 29.5356 4.36865 28.3271 4.36426C27.1187 4.36865 26.1826 5.19482 26.1826 6.35059ZM27.1406 6.35059C27.1362 5.66504 27.646 5.2168 28.3271 5.2168C28.9907 5.2168 29.5049 5.66504 29.5049 6.35059C29.5049 7.05371 28.9907 7.49316 28.3271 7.49316C27.646 7.49316 27.1362 7.05371 27.1406 6.35059ZM27.4043 11.624H32.8799V10.833H28.3887V9.00488H27.4043V11.624Z" fill="#D89319"/>
<rect x="0.5" y="0.5" width="36" height="15" rx="7.5" stroke="#F9B233" stroke-opacity="0.3"/>
</svg>
