<svg width="36" height="16" viewBox="0 0 36 16" fill="none" xmlns="http://www.w3.org/2000/svg">
<rect width="36" height="16" rx="8" fill="white"/>
<rect width="16" height="16" rx="8" fill="#213A8F"/>
<path d="M10.1265 4.75C9.78549 4.75 9.46451 4.91404 9.26389 5.16009L8.06019 6.55442C8.06019 6.55442 8.04012 6.59543 8.02006 6.59543C7.97994 6.59543 7.95988 6.55442 7.95988 6.55442L6.73611 5.1806C6.53549 4.91404 6.21451 4.75 5.87346 4.75C5.25154 4.75 4.75 5.26262 4.75 5.89827V10.1222C4.75 10.7374 5.23148 11.2295 5.83333 11.2295C6.43518 11.2295 6.91667 10.7374 6.91667 10.1222L6.93673 8.60489C6.93673 8.58439 6.95679 8.58438 6.97685 8.58438H6.99691L7.95988 9.69164C7.95988 9.69164 7.97994 9.73265 8.02006 9.73265C8.06019 9.73265 8.08025 9.69164 8.08025 9.69164L9.00309 8.56388H9.02315C9.04321 8.56388 9.06327 8.58439 9.06327 8.60489L9.08333 10.1427C9.08333 10.7579 9.56482 11.25 10.1667 11.25C10.7685 11.25 11.25 10.7579 11.25 10.1427V5.89827C11.25 5.26262 10.7485 4.75 10.1265 4.75Z" fill="white"/>
<path d="M21.1113 4.63672H20.0127L18.4395 5.65625V6.70215L19.9248 5.75293H19.96V11H21.1113V4.63672ZM24.5479 9.97168H25.5146V8.31055H27.1846V7.33496H25.5146V5.67383H24.5479V7.33496H22.8867V8.31055H24.5479V9.97168ZM31.043 4.63672H29.9443L28.3711 5.65625V6.70215L29.8564 5.75293H29.8916V11H31.043V4.63672Z" fill="#213A8F"/>
<rect x="0.5" y="0.5" width="35" height="15" rx="7.5" stroke="#213A8F" stroke-opacity="0.3"/>
</svg>
