<svg width="80" height="80" viewBox="0 0 80 80" fill="none" xmlns="http://www.w3.org/2000/svg">
<path d="M0 10C0 4.47715 4.47715 0 10 0H70C75.5228 0 80 4.47715 80 10V70C80 75.5228 75.5228 80 70 80H10C4.47715 80 0 75.5228 0 70V10Z" fill="white"/>
<path d="M0 10C0 4.47715 4.47715 0 10 0H70C75.5228 0 80 4.47715 80 10V70C80 75.5228 75.5228 80 70 80H10C4.47715 80 0 75.5228 0 70V10Z" fill="white"/>
<g clip-path="url(#clip0_1375_6523)">
<path d="M45.9089 39.4122L32.0525 31.4122C31.5081 31.0979 31.3199 30.3954 31.6341 29.851L39.6341 15.9946C39.9484 15.4503 40.651 15.262 41.1953 15.5763L55.0517 23.5763C55.5961 23.8906 55.7843 24.5931 55.47 25.1375L47.47 38.9939C47.1557 39.5382 46.4532 39.7265 45.9089 39.4122Z" fill="#F4D35E"/>
<path d="M46.215 34.3103L36.3176 28.596C35.7732 28.2818 35.585 27.5792 35.8993 27.0349L43.8993 13.1785C44.2136 12.6341 44.9161 12.4459 45.4604 12.7601L55.3579 18.4744C55.9022 18.7887 56.0905 19.4912 55.7762 20.0356L47.7762 33.892C47.4619 34.4364 46.7594 34.6246 46.215 34.3103Z" fill="#F4D35E"/>
<path d="M36.0918 44.3016L32.7267 42.3587C32.2813 42.1016 32.1349 41.5552 32.3921 41.1098L36.5063 33.9836L41.4551 36.8408L37.3408 43.9669C37.0836 44.4123 36.5372 44.5587 36.0918 44.3016Z" fill="#A67C52"/>
<path d="M35.5932 32.1366L33.6137 30.9938C33.0693 30.6795 32.8811 29.977 33.1954 29.4326L34.3382 27.4531C34.6525 26.9088 35.3551 26.7205 35.8994 27.0348L37.8789 28.1777C38.4233 28.492 38.6115 29.1945 38.2972 29.7388L37.1544 31.7183C36.8401 32.2627 36.1375 32.4509 35.5932 32.1366Z" fill="#F6E277"/>
<path d="M39.1612 31.5573L38.122 30.9573C37.6271 30.6716 37.5093 30.0757 37.7664 29.6303L44.2236 18.4462C44.4312 17.9723 45.0557 17.805 45.5011 18.0621L46.5403 18.6621C47.0352 18.9478 47.153 19.5437 46.8959 19.9891L40.4673 31.1237C40.2311 31.6472 39.6066 31.8145 39.1612 31.5573Z" fill="#F4BA54"/>
<path d="M43.3182 33.9573L42.2789 33.3573C41.7841 33.0715 41.6662 32.4756 41.9234 32.0303L48.3805 20.8462C48.6662 20.3513 49.2621 20.2335 49.7075 20.4906L50.7467 21.0906C51.2416 21.3763 51.3594 21.9722 51.1023 22.4176L44.6737 33.5522C44.388 34.0471 43.7635 34.2144 43.3182 33.9573Z" fill="#F4BA54"/>
</g>
<path d="M17.2598 52.1641C15.625 52.1641 14.4414 53.6348 14.4473 55.9609C14.4414 58.3047 15.625 59.7695 17.2598 59.7695C18.8887 59.7695 20.0664 58.3047 20.0723 55.9609C20.0664 53.6348 18.8887 52.1641 17.2598 52.1641ZM15.8887 55.9609C15.8887 54.3789 16.4453 53.5117 17.2598 53.5117C18.0918 53.5117 18.6367 54.3789 18.6426 55.9609C18.6367 57.5488 18.0918 58.416 17.2598 58.4102C16.4453 58.416 15.8887 57.5488 15.8887 55.9609ZM21.3027 62.0781H22.8027V56.6758H24.373V55.4336H22.8027V51.4141H21.3027V62.0781ZM33.6895 51.4141H32.1777V62.1016H33.6895V51.4141ZM25.0762 55.9609C25.0703 58.3047 26.2598 59.7695 27.9004 59.7695C29.5059 59.7695 30.7012 58.3047 30.7012 55.9609C30.7012 53.6348 29.5059 52.1641 27.9004 52.1641C26.2598 52.1641 25.0703 53.6348 25.0762 55.9609ZM26.5176 55.9609C26.5117 54.3789 27.0684 53.5117 27.9004 53.5117C28.709 53.5117 29.2539 54.3789 29.2598 55.9609C29.2539 57.5488 28.709 58.416 27.9004 58.4102C27.0684 58.416 26.5117 57.5488 26.5176 55.9609ZM40.7441 52.8203V52.0469H39.1504V52.8203C39.1387 54.3672 37.75 56.043 35.377 56.4648L36.0215 57.707C37.8672 57.332 39.25 56.2773 39.9531 54.9238C40.6445 56.2891 42.0215 57.3379 43.8848 57.707L44.541 56.4648C42.127 56.0547 40.7383 54.3848 40.7441 52.8203ZM35.1309 60.7656H44.8926V59.5352H35.1309V60.7656ZM54.2324 52.3516H46.6152V53.5469H52.7676V53.5938C52.7676 54.1445 52.7617 54.6953 52.7383 55.2812L46.2871 55.5156L46.4746 56.7109L52.6621 56.4062C52.5859 57.127 52.4629 57.9121 52.252 58.7969L53.7402 58.9375C54.2266 56.623 54.2266 55.1465 54.2324 53.5938V52.3516ZM45.502 60.8008H55.2285V59.582H45.502V60.8008ZM64.8027 51.4258H63.3027V57.7422H64.8027V51.4258ZM56.4238 53.207H59.8809V54.0977H56.4355V57.3789H57.373C59.4883 57.3789 60.9297 57.3262 62.5645 57.0625L62.377 55.8672C60.9414 56.1074 59.6816 56.1543 57.9004 56.1602V55.2344H61.3691V52.0352H56.4238V53.207ZM57.6543 61.9609H64.8027V58.2109H57.6543V61.9609ZM59.1309 60.7656V59.3945H63.3379V60.7656H59.1309Z" fill="#4C5257"/>
<defs>
<clipPath id="clip0_1375_6523">
<rect width="18.2857" height="32" fill="white" transform="translate(42.4912 11.0459) rotate(30)"/>
</clipPath>
</defs>
</svg>
