<svg width="37" height="16" viewBox="0 0 37 16" fill="none" xmlns="http://www.w3.org/2000/svg">
<rect width="37" height="16" rx="8" fill="white"/>
<rect width="16" height="16" rx="8" fill="#258E37"/>
<path d="M7.94486 6.19267H4.6001V4.62207H10.5981H10.6404C10.6404 4.62207 8.9751 5.25843 7.98719 6.19267H7.94486Z" fill="white"/>
<path d="M11.6001 4.5V6.26015C11.6001 6.26015 9.82187 6.70696 9.59606 7.96615C9.59606 7.96615 9.22913 9.49613 9.31381 11.4865H6.66058C6.66058 11.4865 6.56179 8.83269 7.36622 7.32979C7.36622 7.32979 8.14243 5.58317 11.6001 4.5Z" fill="white"/>
<path d="M18.5273 11H22.9482V10.042H20.1182V9.99805L21.252 8.87305C22.5044 7.69092 22.8472 7.11084 22.8516 6.39453C22.8472 5.32666 21.9727 4.54883 20.6719 4.54883C19.4019 4.54883 18.4966 5.33105 18.501 6.53516H19.5908C19.5864 5.88916 20.0083 5.48047 20.6631 5.48047C21.2827 5.48047 21.7529 5.854 21.7529 6.44727C21.7529 6.9834 21.4189 7.36133 20.7773 8.00293L18.5273 10.1738V11ZM25.8398 9.97168H26.8066V8.31055H28.4766V7.33496H26.8066V5.67383H25.8398V7.33496H24.1787V8.31055H25.8398V9.97168ZM32.335 4.63672H31.2363L29.6631 5.65625V6.70215L31.1484 5.75293H31.1836V11H32.335V4.63672Z" fill="#258E37"/>
<rect x="0.5" y="0.5" width="36" height="15" rx="7.5" stroke="#258E37" stroke-opacity="0.3"/>
</svg>
