<svg width="18" height="18" viewBox="0 0 18 18" fill="none" xmlns="http://www.w3.org/2000/svg">
<path d="M6 13.0751L7.97328 14.615C8.2279 14.8717 8.80079 15 9.18271 15H11.6016C12.3654 15 13.1929 14.4225 13.3839 13.6526L14.9116 8.96857C15.2299 8.07027 14.657 7.3003 13.7022 7.3003H11.156C10.7741 7.3003 10.4558 6.97948 10.5195 6.53033L10.8377 4.47707C10.965 3.89959 10.5831 3.25795 10.0102 3.06546C9.50099 2.87297 8.86444 3.12962 8.60983 3.51461L6 7.42863" stroke="#747E84" stroke-width="1.5" stroke-miterlimit="10"/>
<path d="M3 12.8824V7.11765C3 6.29412 3.36 6 4.2 6H4.8C5.64 6 6 6.29412 6 7.11765V12.8824C6 13.7059 5.64 14 4.8 14H4.2C3.36 14 3 13.7059 3 12.8824Z" stroke="#747E84" stroke-width="1.5" stroke-linecap="round" stroke-linejoin="round"/>
</svg>
