<svg width="80" height="80" viewBox="0 0 80 80" fill="none" xmlns="http://www.w3.org/2000/svg">
<rect width="80" height="80" rx="10" fill="white"/>
<g clip-path="url(#clip0_1375_6515)">
<path d="M47.5363 44H29.2419C28.6252 44 28.1113 43.5 28.1113 42.9V17.1C28.1113 16.5 28.6252 16 29.2419 16H47.4849C48.153 16 48.6669 16.5 48.6669 17.1V42.85C48.6669 43.5 48.153 44 47.5363 44Z" fill="#5E3E3E"/>
<path d="M51.6472 40H25.1306C24.5139 40 24 39.5 24 38.9V21.1C24 20.5 24.5139 20 25.1306 20H51.6986C52.2639 20 52.7778 20.5 52.7778 21.1V38.95C52.7778 39.5 52.2639 40 51.6472 40Z" fill="#5E3E3E"/>
<path d="M35.306 40H33.2504C32.6852 40 32.2227 39.55 32.2227 39V21C32.2227 20.45 32.6852 20 33.2504 20H35.306C35.8713 20 36.3338 20.45 36.3338 21V39C36.3338 39.55 35.8713 40 35.306 40Z" fill="#915959"/>
<path d="M32.2224 36H29.1391C28.5738 36 28.1113 35.55 28.1113 35V25C28.1113 24.45 28.5738 24 29.1391 24H32.2224V36Z" fill="#915959"/>
<path d="M51.7498 40H48.6664C48.1012 40 47.6387 39.55 47.6387 39V36C47.6387 35.45 48.1012 35 48.6664 35H51.7498C52.3151 35 52.7776 35.45 52.7776 36V39C52.7776 39.55 52.3151 40 51.7498 40Z" fill="#2DB252"/>
<path d="M55.8611 36H52.7778C52.2125 36 51.75 35.55 51.75 35V32C51.75 31.45 52.2125 31 52.7778 31H55.8611C56.4264 31 56.8889 31.45 56.8889 32V35C56.8889 35.55 56.4264 36 55.8611 36Z" fill="#2DB252"/>
<path d="M52.7776 33H49.6943C49.129 33 48.6665 32.55 48.6665 32V29C48.6665 28.45 49.129 28 49.6943 28H52.7776C53.3429 28 53.8054 28.45 53.8054 29V32C53.8054 32.55 53.3429 33 52.7776 33Z" fill="#2DB252"/>
<path d="M59.972 33H56.8886C56.3233 33 55.8608 32.55 55.8608 32V29C55.8608 28.45 56.3233 28 56.8886 28H59.972C60.5372 28 60.9997 28.45 60.9997 29V32C60.9997 32.55 60.5372 33 59.972 33Z" fill="#2DB252"/>
<path d="M32.7362 29H30.6806C30.1153 29 29.6528 28.55 29.6528 28V26C29.6528 25.45 30.1153 25 30.6806 25H32.7362C33.3014 25 33.7639 25.45 33.7639 26V28C33.7639 28.55 33.3014 29 32.7362 29Z" fill="#AF6868"/>
</g>
<path d="M28.4219 51.8477H20.4648V53.043H23.3594C23.1309 53.834 22.0352 54.6016 20.0078 54.8125L20.5352 55.9609C22.5332 55.7734 23.8633 55 24.4258 53.9453C24.9941 55.0059 26.3477 55.7734 28.3516 55.9609L28.8906 54.8125C26.8281 54.6191 25.7266 53.8457 25.498 53.043H28.4219V51.8477ZM19.5742 57.6016H29.3008V56.418H19.5742V57.6016ZM20.6523 59.5703H26.6289V62.0781H28.1172V58.375H20.6523V59.5703ZM33.9414 53.0781V51.9648H32.4297V52.9844C32.4238 54.4434 31.6621 55.8379 29.875 56.4062L30.6836 57.6016C31.8848 57.1738 32.7227 56.3477 33.1914 55.293C33.6426 56.2598 34.4277 57.0273 35.5703 57.4141L36.3672 56.2305C34.6797 55.6973 33.9355 54.4082 33.9414 53.0781ZM31.6094 59.4297H37.4453V62.0781H38.9336V58.2461H31.6094V59.4297ZM35.4414 54.625H37.4453V57.7656H38.9336V51.4141H37.4453V53.3945H35.4414V54.625ZM50.0781 59.6055H47.9102V56.9629C48.7129 56.4648 49.1934 55.7207 49.1992 54.8008C49.1934 53.0723 47.4883 51.9355 45.1797 51.9297C42.8594 51.9355 41.1719 53.0723 41.1719 54.8008C41.1719 55.7383 41.6699 56.4941 42.4961 56.9922V59.6055H40.3164V60.8359H50.0781V59.6055ZM42.6484 54.8008C42.6484 53.7285 43.6504 53.1074 45.1797 53.1133C46.6855 53.1074 47.7168 53.7285 47.7227 54.8008C47.7168 55.8438 46.6855 56.4883 45.1797 56.4883C43.6504 56.4883 42.6484 55.8438 42.6484 54.8008ZM43.9727 59.6055V57.5371C44.3477 57.6074 44.752 57.6484 45.1797 57.6484C45.6074 57.6484 46.0176 57.6074 46.3984 57.5312V59.6055H43.9727ZM59.6289 51.4141H58.1406V62.1016H59.6289V51.4141ZM51.25 53.5117H54.8008V55.2344H51.2617V59.6055H52.2227C54.168 59.6055 55.7559 59.541 57.5078 59.2305L57.3789 58.0234C55.8145 58.2812 54.4375 58.3633 52.8086 58.375V56.418H56.3242V52.3047H51.25V53.5117Z" fill="#4C5257"/>
<defs>
<clipPath id="clip0_1375_6515">
<rect width="37" height="28" fill="white" transform="translate(24 16)"/>
</clipPath>
</defs>
</svg>
