<svg width="87" height="66" viewBox="0 0 87 66" fill="none" xmlns="http://www.w3.org/2000/svg">
<rect x="10.8584" y="1.78516" width="41.1299" height="59.1243" rx="1.6709" fill="#E2E7EA"/>
<path d="M10.8584 58.3389H51.9883V61.8092C51.9883 62.732 51.2402 63.4801 50.3174 63.4801H12.5293C11.6065 63.4801 10.8584 62.732 10.8584 61.8092V58.3389Z" fill="#BBC2C7"/>
<path d="M51.9883 5.64111L10.8583 5.64111L10.8583 2.17077C10.8583 1.24796 11.6064 0.499867 12.5292 0.499867L50.3174 0.499871C51.2402 0.499871 51.9883 1.24796 51.9883 2.17077L51.9883 5.64111Z" fill="#BBC2C7"/>
<rect opacity="0.3" x="10.8584" y="12.0679" width="32.1328" height="19.2797" rx="1.6709" fill="#939CA3"/>
<rect opacity="0.3" x="15" y="36" width="17" height="5" rx="1.6709" fill="#939CA3"/>
<rect opacity="0.3" x="15" y="47" width="17" height="5" rx="1.6709" fill="#939CA3"/>
<g clip-path="url(#clip0_3641_6096)">
<path d="M67.9632 20.5137H43.7259C42.3062 20.5137 41.1553 21.6646 41.1553 23.0843V47.3216C41.1553 48.7413 42.3062 49.8922 43.7259 49.8922H67.9632C69.3829 49.8922 70.5338 48.7413 70.5338 47.3216V23.0843C70.5338 21.6646 69.3829 20.5137 67.9632 20.5137Z" fill="white"/>
<path d="M63.1885 14.6382H58.7817H52.906H48.4992C47.6913 14.6382 47.0303 15.2992 47.0303 16.1071V20.5139H52.906H58.7817H64.6574V16.1071C64.6574 15.2992 63.9964 14.6382 63.1885 14.6382Z" fill="#F8594E"/>
<path d="M70.5339 26.3894H66.1271C65.3192 26.3894 64.6582 25.7284 64.6582 24.9205V20.5137H69.065C69.8729 20.5137 70.5339 21.1747 70.5339 21.9826V26.3894Z" fill="#F8594E"/>
<path d="M69.065 49.8923H64.6582V45.4855C64.6582 44.6776 65.3192 44.0166 66.1271 44.0166H70.5339V48.4234C70.5339 49.2313 69.8729 49.8923 69.065 49.8923Z" fill="#F8594E"/>
<path d="M74.3902 55.217H71.3972C70.6164 55.217 69.9834 54.584 69.9834 53.8032V50.8102C69.9834 50.0023 70.6444 49.3413 71.4523 49.3413H74.4453C75.2261 49.3413 75.8591 49.9743 75.8591 50.7552V53.7481C75.8591 54.556 75.1981 55.217 74.3902 55.217Z" fill="#F8594E"/>
<path d="M47.031 49.8923H42.6242C41.8163 49.8923 41.1553 49.2313 41.1553 48.4234V44.0166H45.5621C46.37 44.0166 47.031 44.6776 47.031 45.4855V49.8923Z" fill="#F8594E"/>
<path d="M74.94 26.3896H70.5332V32.2654V38.1411V44.0168H74.94C75.7479 44.0168 76.4089 43.3557 76.4089 42.5478V38.1411V32.2654V27.8586C76.4089 27.0507 75.7479 26.3896 74.94 26.3896Z" fill="#F8594E"/>
<path d="M58.7817 49.8926H52.906H47.0303V54.2994C47.0303 55.1073 47.6913 55.7683 48.4992 55.7683H52.906H58.7817H63.1885C63.9964 55.7683 64.6574 55.1073 64.6574 54.2994V49.8926H58.7817Z" fill="#F8594E"/>
<path d="M36.7482 26.3896C35.9403 26.3896 35.2793 27.0507 35.2793 27.8586V32.2654V38.1411V42.5478C35.2793 43.3557 35.9403 44.0168 36.7482 44.0168H41.155V38.1411V32.2654V26.3896H36.7482Z" fill="#F8594E"/>
<path d="M45.5621 26.3894H41.1553V21.9826C41.1553 21.1747 41.8163 20.5137 42.6242 20.5137H47.031V24.9205C47.031 25.7284 46.37 26.3894 45.5621 26.3894Z" fill="#F8594E"/>
<path d="M52.9068 27.1242H49.9689C49.161 27.1242 48.5 26.4632 48.5 25.6553V22.7175C48.5 21.9096 49.161 21.2485 49.9689 21.2485H52.9068C53.7147 21.2485 54.3757 21.9096 54.3757 22.7175V25.6553C54.3757 26.4632 53.7147 27.1242 52.9068 27.1242Z" fill="white"/>
<path d="M46.2964 33.7341H43.3586C42.5507 33.7341 41.8896 33.0731 41.8896 32.2652V29.3273C41.8896 28.5194 42.5507 27.8584 43.3586 27.8584H46.2964C47.1043 27.8584 47.7654 28.5194 47.7654 29.3273V32.2652C47.7654 33.0731 47.1043 33.7341 46.2964 33.7341Z" fill="white"/>
</g>
<path d="M79.5308 60.3586H76.5379C75.757 60.3586 75.124 59.7256 75.124 58.9448V55.9518C75.124 55.1439 75.785 54.4829 76.5929 54.4829H79.5859C80.3667 54.4829 80.9997 55.1159 80.9997 55.8968V58.8897C80.9997 59.6976 80.3387 60.3586 79.5308 60.3586Z" fill="#F8594E"/>
<path d="M84.6724 65.4997H81.6795C80.8986 65.4997 80.2656 64.8667 80.2656 64.0859V61.0929C80.2656 60.285 80.9266 59.624 81.7346 59.624H84.7275C85.5083 59.624 86.1413 60.257 86.1413 61.0379V64.0308C86.1413 64.8387 85.4803 65.4997 84.6724 65.4997Z" fill="#F8594E"/>
<defs>
<clipPath id="clip0_3641_6096">
<rect width="41.1299" height="41.1299" fill="white" transform="translate(35.2793 14.6382)"/>
</clipPath>
</defs>
</svg>
