<svg width="37" height="16" viewBox="0 0 37 16" fill="none" xmlns="http://www.w3.org/2000/svg">
<rect width="37" height="16" rx="8" fill="white"/>
<rect width="16" height="16" rx="8" fill="#0071B9"/>
<path fill-rule="evenodd" clip-rule="evenodd" d="M7.92505 10.184V7.60962H5.83292L5.98173 8.5802H6.84834V9.51844C6.64701 9.63398 6.45005 9.68945 6.17431 9.68945C5.31207 9.68945 4.87877 8.99155 4.87877 7.99785C4.87877 7.00878 5.29894 6.33861 6.16118 6.33861C6.67765 6.33861 7.11971 6.53735 7.49612 6.79155L7.66244 5.64995C7.25977 5.41424 6.7433 5.26172 6.13054 5.26172C4.58552 5.26172 3.63574 6.37096 3.63574 8.0071C3.63574 9.63861 4.51111 10.7386 6.0999 10.7386C6.78707 10.7386 7.4042 10.5399 7.92505 10.184Z" fill="white"/>
<path fill-rule="evenodd" clip-rule="evenodd" d="M12.0003 9.04666C12.0003 8.20548 11.567 7.808 10.4815 7.38741C9.85562 7.13783 9.71993 7.0038 9.71993 6.73573C9.71993 6.49078 9.89938 6.32439 10.2802 6.32439C10.661 6.32439 11.1337 6.47691 11.5845 6.7496L11.7727 5.6496C11.335 5.42775 10.9192 5.29834 10.267 5.29834C9.31289 5.29834 8.55569 5.8391 8.55569 6.86052C8.55569 7.73405 8.989 8.07607 9.9913 8.48279C10.696 8.76472 10.8404 8.90338 10.8404 9.2038C10.8404 9.51809 10.5953 9.67985 10.2364 9.67985C9.73744 9.67985 9.16408 9.48111 8.65198 9.18993L8.47253 10.3084C8.98025 10.5534 9.54486 10.7059 10.2189 10.7059C11.2037 10.7013 12.0003 10.1975 12.0003 9.04666Z" fill="white"/>
<path d="M24.5303 3.81934H23.5547V8.15234H24.5303V6.40332H25.6465V5.6123H24.5303V3.81934ZM18.2725 5.22559H22.9834V4.47852H21.1201V3.77539H20.1445V4.47852H18.2725V5.22559ZM18.6768 6.77246C18.6768 7.58545 19.4546 8.07324 20.6279 8.07324C21.8057 8.07324 22.5659 7.58545 22.5703 6.77246C22.5659 5.98145 21.8057 5.47607 20.6279 5.47168C19.4546 5.47607 18.6768 5.98145 18.6768 6.77246ZM19.3359 9.21582H23.5547V9.74316H19.3447V11.7119H24.7764V10.9824H20.3115V10.4199H24.5303V8.50391H19.3359V9.21582ZM19.626 6.77246C19.6216 6.39453 20.0127 6.17041 20.6279 6.1748C21.2432 6.17041 21.6387 6.39453 21.6387 6.77246C21.6387 7.16357 21.2432 7.36572 20.6279 7.37012C20.0127 7.36572 19.6216 7.16357 19.626 6.77246ZM32.6602 3.8457H31.6758V9.58496H32.6602V3.8457ZM26.1826 6.35059C26.1826 7.52393 27.1187 8.3457 28.3271 8.3457C29.5356 8.3457 30.4673 7.52393 30.4629 6.35059C30.4673 5.19482 29.5356 4.36865 28.3271 4.36426C27.1187 4.36865 26.1826 5.19482 26.1826 6.35059ZM27.1406 6.35059C27.1362 5.66504 27.646 5.2168 28.3271 5.2168C28.9907 5.2168 29.5049 5.66504 29.5049 6.35059C29.5049 7.05371 28.9907 7.49316 28.3271 7.49316C27.646 7.49316 27.1362 7.05371 27.1406 6.35059ZM27.4043 11.624H32.8799V10.833H28.3887V9.00488H27.4043V11.624Z" fill="#0071B9"/>
<rect x="0.5" y="0.5" width="36" height="15" rx="7.5" stroke="#0071B9" stroke-opacity="0.3"/>
</svg>
