<svg width="37" height="16" viewBox="0 0 37 16" fill="none" xmlns="http://www.w3.org/2000/svg">
<rect width="37" height="16" rx="8" fill="white"/>
<rect x="0.5" y="0.5" width="36" height="15" rx="7.5" stroke="#213A8F" stroke-opacity="0.3"/>
<rect width="16" height="16" rx="8" fill="#213A8F"/>
<path d="M10.1265 4.75C9.78549 4.75 9.46451 4.91404 9.26389 5.16009L8.06019 6.55442C8.06019 6.55442 8.04012 6.59543 8.02006 6.59543C7.97994 6.59543 7.95988 6.55442 7.95988 6.55442L6.73611 5.1806C6.53549 4.91404 6.21451 4.75 5.87346 4.75C5.25154 4.75 4.75 5.26262 4.75 5.89827V10.1222C4.75 10.7374 5.23148 11.2295 5.83333 11.2295C6.43518 11.2295 6.91667 10.7374 6.91667 10.1222L6.93673 8.60489C6.93673 8.58439 6.95679 8.58438 6.97685 8.58438H6.99691L7.95988 9.69164C7.95988 9.69164 7.97994 9.73265 8.02006 9.73265C8.06019 9.73265 8.08025 9.69164 8.08025 9.69164L9.00309 8.56388H9.02315C9.04321 8.56388 9.06327 8.58439 9.06327 8.60489L9.08333 10.1427C9.08333 10.7579 9.56482 11.25 10.1667 11.25C10.7685 11.25 11.25 10.7579 11.25 10.1427V5.89827C11.25 5.26262 10.7485 4.75 10.1265 4.75Z" fill="white"/>
<path d="M25.5059 7.53711V8.32812H18.2637V7.53711H25.5059ZM18.6152 6.41211C20.0874 6.26709 21.0454 5.67822 21.1948 5.01465H18.9229V4.21484H24.8555V5.01465H22.5615C22.7065 5.66943 23.6558 6.26709 25.1631 6.41211L24.8203 7.18555C23.3745 7.03613 22.3066 6.46045 21.876 5.65625C21.4453 6.46045 20.3906 7.03613 18.9492 7.18555L18.6152 6.41211ZM19.1074 10.3145C19.1074 9.3916 20.1489 8.85547 21.876 8.85547C23.5898 8.85547 24.6226 9.3916 24.627 10.3145C24.6226 11.2505 23.5898 11.7734 21.876 11.7734C20.1489 11.7734 19.1074 11.2505 19.1074 10.3145ZM20.1006 10.3145C20.0962 10.7759 20.7202 11.0044 21.876 11.0088C23.0142 11.0044 23.6426 10.7759 23.6514 10.3145C23.6426 9.85303 23.0142 9.62012 21.876 9.62012C20.7202 9.62012 20.0962 9.85303 20.1006 10.3145ZM32.6953 3.83691V8.55664H31.7197V6.61426H30.3662V5.81445H31.7197V3.83691H32.6953ZM26.0156 7.76562C27.2944 7.32617 27.9668 6.2583 27.9668 5.20801V5.14648H26.3145V4.35547H30.6035V5.14648H28.96V5.19922C28.96 6.16602 29.6016 7.1416 30.832 7.55469L30.3398 8.32812C29.4565 8.0293 28.8325 7.42285 28.481 6.67578C28.1338 7.51953 27.4702 8.20508 26.5254 8.53906L26.0156 7.76562ZM27.3076 10.2705C27.2988 9.31689 28.3315 8.75879 30.0059 8.75879C31.689 8.75879 32.7173 9.31689 32.7217 10.2705C32.7173 11.2241 31.689 11.7778 30.0059 11.7822C28.3315 11.7778 27.2988 11.2241 27.3076 10.2705ZM28.2744 10.2705C28.27 10.7627 28.9028 11.0308 30.0059 11.0264C31.1177 11.0308 31.7461 10.7627 31.7461 10.2705C31.7461 9.77393 31.1177 9.50586 30.0059 9.50586C28.9028 9.50586 28.27 9.77393 28.2744 10.2705Z" fill="#213A8F"/>
</svg>
