<svg width="28" height="27" viewBox="0 0 28 27" fill="none" xmlns="http://www.w3.org/2000/svg">
<path d="M20.4629 8.66352L20.4631 8.66356L24.7162 9.37019C24.7163 9.3702 24.7164 9.37022 24.7165 9.37023C25.9901 9.58255 26.6048 10.1198 26.7774 10.6567C26.9496 11.1924 26.7635 11.9843 25.8461 12.8956L25.8449 12.8968L22.5382 16.2034C22.1833 16.5584 21.9312 17.0508 21.7894 17.5461C21.6475 18.0416 21.6012 18.592 21.7105 19.0797L21.7113 19.083L22.6578 23.1759C23.0215 24.7538 22.7215 25.5918 22.2855 25.9096C21.8487 26.2281 20.9557 26.258 19.5594 25.4332L15.5733 23.0735C15.5733 23.0735 15.5733 23.0735 15.5732 23.0735C15.5732 23.0734 15.5732 23.0734 15.5731 23.0734C15.1172 22.8033 14.5466 22.6837 14.0034 22.6837C13.4596 22.6837 12.8876 22.8035 12.427 23.0715L12.4237 23.0734L8.43704 25.4334L8.43657 25.4337C7.04932 26.257 6.15574 26.2253 5.71646 25.9048C5.27758 25.5845 4.97592 24.7448 5.33887 23.1764L5.33889 23.1763L6.28557 19.083L6.28631 19.0797C6.39562 18.592 6.34928 18.0416 6.20744 17.5461C6.06566 17.0508 5.81356 16.5584 5.45863 16.2034L2.15197 12.8968C1.24064 11.9854 1.05326 11.1927 1.22472 10.6558C1.39601 10.1193 2.00727 9.58247 3.28036 9.37023C3.28045 9.37022 3.28053 9.3702 3.28061 9.37019L7.5337 8.66357L7.53545 8.66327C7.98686 8.58662 8.44885 8.35794 8.83455 8.07197C9.21957 7.78648 9.57486 7.40956 9.7798 6.99226L12.1252 2.30153C12.1252 2.30144 12.1252 2.30135 12.1253 2.30126C12.7291 1.10002 13.4359 0.666992 13.9967 0.666992C14.5568 0.666992 15.2602 1.09898 15.8574 2.29966L15.8579 2.3006L18.2027 6.99026C18.203 6.99092 18.2034 6.99157 18.2037 6.99223C18.4087 7.4097 18.7642 7.78685 19.1515 8.07266C19.5398 8.35914 20.0053 8.58726 20.4629 8.66352Z" fill="#F7F9FA" stroke="#CAD2D8" stroke-linecap="round" stroke-linejoin="round"/>
</svg>
