<svg width="32" height="33" viewBox="0 0 32 33" fill="none" xmlns="http://www.w3.org/2000/svg">
<path d="M17.8579 5.3006L17.8574 5.29966C17.2602 4.09898 16.5568 3.66699 15.9967 3.66699C15.4359 3.66699 14.7291 4.10002 14.1253 5.30126C14.1252 5.30135 14.1252 5.30144 14.1252 5.30153L11.7798 9.99223C11.5749 10.4095 11.2196 10.7865 10.8345 11.072C10.4489 11.3579 9.98686 11.5866 9.53545 11.6633L9.5337 11.6636L5.28061 12.3702C4.00735 12.5824 3.39602 13.1193 3.22472 13.6558C3.05326 14.1927 3.24064 14.9854 4.15197 15.8968L7.45863 19.2034C7.81356 19.5584 8.06566 20.0508 8.20744 20.5461C8.34928 21.0416 8.39562 21.592 8.28631 22.0797L8.28557 22.083L7.33889 26.1763L7.33887 26.1764C6.97592 27.7448 7.27758 28.5845 7.71646 28.9048C8.15574 29.2253 9.04932 29.257 10.4366 28.4337L10.437 28.4334L14.4237 26.0734L14.427 26.0715C14.8876 25.8035 15.4596 25.6837 16.0034 25.6837C16.5466 25.6837 17.1172 25.8033 17.5731 26.0734C17.5732 26.0734 17.5732 26.0735 17.5733 26.0735L21.5594 28.4332C21.5594 28.4332 21.5595 28.4332 21.5595 28.4332C22.9558 29.258 23.8487 29.2281 24.2855 28.9096C24.7215 28.5918 25.0214 27.7539 24.6579 26.1763L17.8579 5.3006ZM17.8579 5.3006L20.2027 9.99026C20.203 9.99092 20.2034 9.99157 20.2037 9.99223C20.4087 10.4097 20.7642 10.7868 21.1515 11.0727C21.5398 11.3591 22.0053 11.5873 22.4629 11.6635L22.4631 11.6636L26.7162 12.3702C27.99 12.5825 28.6048 13.1198 28.7774 13.6567C28.9496 14.1924 28.7635 14.9843 27.8461 15.8956L27.8449 15.8968L24.5382 19.2034C24.1833 19.5584 23.9312 20.0508 23.7894 20.5461C23.6475 21.0416 23.6012 21.592 23.7105 22.0797L23.7113 22.083L24.6578 26.1759L17.8579 5.3006Z" fill="#F7F9FA" stroke="#CAD2D8" stroke-linecap="round" stroke-linejoin="round"/>
</svg>
