<svg width="16" height="17" viewBox="0 0 16 17" fill="none" xmlns="http://www.w3.org/2000/svg">
<path d="M14.75 16.0625H1.25C0.9425 16.0625 0.6875 15.8075 0.6875 15.5C0.6875 15.1925 0.9425 14.9375 1.25 14.9375H14.75C15.0575 14.9375 15.3125 15.1925 15.3125 15.5C15.3125 15.8075 15.0575 16.0625 14.75 16.0625ZM3.2 5.28425H2C1.5875 5.28425 1.25 5.62175 1.25 6.03425V12.4993C1.25 12.9118 1.5875 13.2493 2 13.2493H3.2C3.6125 13.2493 3.95 12.9118 3.95 12.4993V6.03425C3.95 5.61425 3.6125 5.28425 3.2 5.28425ZM8.6 2.89325H7.4C6.9875 2.89325 6.65 3.23075 6.65 3.64325V12.5007C6.65 12.9132 6.9875 13.2507 7.4 13.2507H8.6C9.0125 13.2507 9.35 12.9132 9.35 12.5007V3.64325C9.35 3.23075 9.0125 2.89325 8.6 2.89325ZM14 0.5H12.8C12.3875 0.5 12.05 0.8375 12.05 1.25V12.5C12.05 12.9125 12.3875 13.25 12.8 13.25H14C14.4125 13.25 14.75 12.9125 14.75 12.5V1.25C14.75 0.8375 14.4125 0.5 14 0.5Z" fill="#747E84"/>
</svg>
