<svg width="80" height="80" viewBox="0 0 80 80" fill="none" xmlns="http://www.w3.org/2000/svg">
<rect width="80" height="80" rx="10" fill="white"/>
<g clip-path="url(#clip0_1375_6532)">
<path d="M48.1249 18.2856H30.2856V22.5714H48.1249V18.2856Z" fill="#4AC4CC"/>
<path d="M51.7144 18.2856H47.4287V22.5714H51.7144V18.2856Z" fill="#BFBFBF"/>
<path d="M47.4286 26.8572H26V23.7501C26 23.1072 26.5357 22.5715 27.1786 22.5715H47.4286V26.8572Z" fill="#4AC4CC"/>
<path d="M43.1429 44H27.0714C26.4821 44 26 43.5179 26 42.9286V26.8572H43.1429V44Z" fill="#EDEBEB"/>
<path d="M51.7142 18.2857H30.2856V15.0714C30.2856 14.4821 30.7678 14 31.3571 14H50.6428C51.2321 14 51.7142 14.4821 51.7142 15.0714V18.2857Z" fill="#00A6BA"/>
<path d="M51.7144 18.2857H47.4287V14H50.643C51.2323 14 51.7144 14.4821 51.7144 15.0714V18.2857Z" fill="#0092BA"/>
<path d="M54.9288 44H43.1431V26.8572H56.0002V42.9286C56.0002 43.5179 55.5181 44 54.9288 44Z" fill="#D6D2D2"/>
<path d="M36.2324 23.7501H34.0895C33.5002 23.7501 33.0181 23.2679 33.0181 22.6786V20.5358C33.0181 19.9465 33.5002 19.4644 34.0895 19.4644H36.2324C36.8216 19.4644 37.3038 19.9465 37.3038 20.5358V22.6786C37.3038 23.2679 36.8216 23.7501 36.2324 23.7501Z" fill="#77D3CC"/>
<path d="M56.0002 26.8572H43.1431V23.643C43.1431 23.0537 43.6252 22.5715 44.2145 22.5715H54.9288C55.5181 22.5715 56.0002 23.0537 56.0002 23.643V26.8572Z" fill="#BFBFBF"/>
</g>
<path d="M34.5098 57.3438H24.748V58.5508H26.9863V62.0781H28.5215V58.5508H30.7012V62.0781H32.2246V58.5508H34.5098V57.3438ZM25.7324 54.1797C25.7266 55.6152 27.3086 56.5293 29.5996 56.5234C31.8906 56.5293 33.4902 55.6152 33.4902 54.1797C33.4902 52.709 31.8906 51.7715 29.5996 51.7656C27.3086 51.7715 25.7266 52.709 25.7324 54.1797ZM27.2676 54.1797C27.2617 53.3945 28.1699 52.9668 29.5996 52.9609C31.041 52.9668 31.9434 53.3945 31.9434 54.1797C31.9434 54.9297 31.041 55.3457 29.5996 55.3516C28.1699 55.3457 27.2617 54.9297 27.2676 54.1797ZM44.3535 51.4141H42.9355V62.0781H44.3535V51.4141ZM34.9082 58.9609L35.8105 60.0625C36.7891 59.4648 37.4336 58.4102 37.7969 57.168C38.1602 58.3164 38.7812 59.2656 39.7363 59.8281L40.6152 58.7266C39.0566 57.8359 38.5 56.043 38.5059 54.2734V53.6992H40.123V52.5039H35.3184V53.6992H37.0645V54.2734C37.0645 56.084 36.4785 57.9941 34.9082 58.9609ZM39.3613 56.2773H40.7676V61.5859H42.1738V51.5898H40.7676V55.0703H39.3613V56.2773ZM55.2285 56.4062H45.502V57.5898H49.6152V58.5039H46.627V61.9609H54.0684V58.5039H51.1035V57.5898H55.2285V56.4062ZM46.3574 52.9023H47.7402V54.5312H46.4277V55.7266H54.291V54.5312H52.9668V52.9023H54.3613V51.707H46.3574V52.9023ZM48.1035 60.7656V59.6641H52.6035V60.7656H48.1035ZM49.2402 54.5312V52.9023H51.4668V54.5312H49.2402Z" fill="#4C5257"/>
<defs>
<clipPath id="clip0_1375_6532">
<rect width="30" height="30" fill="white" transform="translate(26 14)"/>
</clipPath>
</defs>
</svg>
