<svg width="37" height="16" viewBox="0 0 37 16" fill="none" xmlns="http://www.w3.org/2000/svg">
<rect width="37" height="16" rx="8" fill="white"/>
<rect width="16" height="16" rx="8" fill="#213A8F"/>
<path d="M10.1265 4.75C9.78549 4.75 9.46451 4.91404 9.26389 5.16009L8.06019 6.55442C8.06019 6.55442 8.04012 6.59543 8.02006 6.59543C7.97994 6.59543 7.95988 6.55442 7.95988 6.55442L6.73611 5.1806C6.53549 4.91404 6.21451 4.75 5.87346 4.75C5.25154 4.75 4.75 5.26262 4.75 5.89827V10.1222C4.75 10.7374 5.23148 11.2295 5.83333 11.2295C6.43518 11.2295 6.91667 10.7374 6.91667 10.1222L6.93673 8.60489C6.93673 8.58439 6.95679 8.58438 6.97685 8.58438H6.99691L7.95988 9.69164C7.95988 9.69164 7.97994 9.73265 8.02006 9.73265C8.06019 9.73265 8.08025 9.69164 8.08025 9.69164L9.00309 8.56388H9.02315C9.04321 8.56388 9.06327 8.58439 9.06327 8.60489L9.08333 10.1427C9.08333 10.7579 9.56482 11.25 10.1667 11.25C10.7685 11.25 11.25 10.7579 11.25 10.1427V5.89827C11.25 5.26262 10.7485 4.75 10.1265 4.75Z" fill="white"/>
<path d="M18.5273 11H22.9482V10.042H20.1182V9.99805L21.252 8.87305C22.5044 7.69092 22.8472 7.11084 22.8516 6.39453C22.8472 5.32666 21.9727 4.54883 20.6719 4.54883C19.4019 4.54883 18.4966 5.33105 18.501 6.53516H19.5908C19.5864 5.88916 20.0083 5.48047 20.6631 5.48047C21.2827 5.48047 21.7529 5.854 21.7529 6.44727C21.7529 6.9834 21.4189 7.36133 20.7773 8.00293L18.5273 10.1738V11ZM25.8398 9.97168H26.8066V8.31055H28.4766V7.33496H26.8066V5.67383H25.8398V7.33496H24.1787V8.31055H25.8398V9.97168ZM32.335 4.63672H31.2363L29.6631 5.65625V6.70215L31.1484 5.75293H31.1836V11H32.335V4.63672Z" fill="#213A8F"/>
<rect x="0.5" y="0.5" width="36" height="15" rx="7.5" stroke="#213A8F" stroke-opacity="0.3"/>
</svg>
