<svg width="80" height="80" viewBox="0 0 80 80" fill="none" xmlns="http://www.w3.org/2000/svg">
<rect width="80" height="80" rx="10" fill="white"/>
<rect x="30" y="28" width="5" height="5" rx="2.5" fill="#939CA3"/>
<rect x="38" y="28" width="5" height="5" rx="2.5" fill="#939CA3"/>
<rect x="46" y="28" width="5" height="5" rx="2.5" fill="#939CA3"/>
<path d="M39.4102 51.4141H37.8984V62.0781H39.4102V51.4141ZM30.4805 59.0547L31.2656 60.25C35.0742 58.4512 36.2051 55.7617 36.2109 52.5273H31.0547V53.6992H34.6875C34.4473 56.0664 33.2344 57.7539 30.4805 59.0547ZM46.2891 52.293H41.2383V59.6523H42.1406C44.0039 59.6523 45.457 59.6055 47.0859 59.3594L46.9453 58.1523C45.5215 58.375 44.2734 58.4395 42.75 58.457V56.4414H46.1367V55.2695H42.75V53.5117H46.2891V52.293ZM47.7305 62.0781H49.2305V56.7109H50.8008V55.457H49.2305V51.4141H47.7305V62.0781Z" fill="#4C5257"/>
</svg>
