<svg width="80" height="80" viewBox="0 0 80 80" fill="none" xmlns="http://www.w3.org/2000/svg">
<rect width="80" height="80" rx="10" fill="white"/>
<g clip-path="url(#clip0_1375_6528)">
<path d="M52.8333 20.7743H49.3333V17.2904C49.3333 16.6517 48.8083 16.1292 48.1667 16.1292H31.8333C31.1917 16.1292 30.6667 16.6517 30.6667 17.2904V20.7743H27.1667C26.525 20.7743 26 21.2969 26 21.9356V38.1937C26 38.8324 26.525 39.355 27.1667 39.355H30.6667V42.8388C30.6667 43.4775 31.1917 44.0001 31.8333 44.0001H48.1667C48.8083 44.0001 49.3333 43.4775 49.3333 42.8388V39.355H52.8333C53.475 39.355 54 38.8324 54 38.1937V21.9356C54 21.2969 53.475 20.7743 52.8333 20.7743Z" fill="#E25439"/>
<path d="M36.5 25.4193H34.1667C33.525 25.4193 33 24.8968 33 24.258V21.9355C33 21.2968 33.525 20.7742 34.1667 20.7742H36.5C37.1417 20.7742 37.6667 21.2968 37.6667 21.9355V24.258C37.6667 24.8968 37.1417 25.4193 36.5 25.4193Z" fill="#FF8A5E"/>
<path d="M42.9167 18.4517H39.4167C38.775 18.4517 38.25 17.9291 38.25 17.2904V13.8066C38.25 13.1678 38.775 12.6453 39.4167 12.6453H42.9167C43.5583 12.6453 44.0833 13.1678 44.0833 13.8066V17.2904C44.0833 17.9291 43.5583 18.4517 42.9167 18.4517Z" fill="#7CD652"/>
<path d="M47.5832 13.8065H44.0832C43.4415 13.8065 42.9165 13.2839 42.9165 12.6452V9.16129C42.9165 8.52258 43.4415 8 44.0832 8H47.5832C48.2248 8 48.7498 8.52258 48.7498 9.16129V12.6452C48.7498 13.2839 48.2248 13.8065 47.5832 13.8065Z" fill="#7CD652"/>
</g>
<path d="M28.5039 51.4258H27.0039V59.207H28.5039V51.4258ZM19.5391 56.5703L20.3125 57.7539C21.5605 57.3262 22.4102 56.4473 22.8906 55.3574C23.3652 56.3711 24.1914 57.168 25.3984 57.5664L26.1602 56.3945C24.4082 55.832 23.6523 54.4551 23.6641 53.043V52.0117H22.1055V53.043C22.1055 54.4902 21.3262 55.9727 19.5391 56.5703ZM21.3555 61.8906H28.7852V60.6953H22.8672V58.457H21.3555V61.8906ZM33.9414 53.2422V52.0703H32.4297V53.2305C32.4238 54.7598 31.6562 56.2188 29.875 56.8047L30.6836 57.9766C31.9199 57.5312 32.752 56.6582 33.209 55.5391C33.6602 56.5293 34.4395 57.3145 35.5703 57.7305L36.3789 56.5586C34.6797 55.9902 33.9414 54.6191 33.9414 53.2422ZM31.832 61.8906H39.1562V60.6953H33.3438V58.4688H31.832V61.8906ZM35.4414 54.8945H37.4453V59.3008H38.9336V51.4258H37.4453V53.6875H35.4414V54.8945ZM44.4062 52.9258V51.9062H42.8477V52.9258C42.8477 54.2852 42.0625 55.6738 40.2812 56.2422L41.0312 57.4141C42.2852 57.0098 43.1523 56.1777 43.6328 55.1289C44.1074 56.1016 44.9512 56.8633 46.1641 57.25L46.9141 56.0781C45.1562 55.5508 44.3945 54.2559 44.4062 52.9258ZM41.9102 59.4297H47.7461V62.0781H49.2461V58.2344H41.9102V59.4297ZM47.7461 57.7773H49.2461V51.4141H47.7461V57.7773ZM60.4141 56.4062H50.6875V57.5898H54.8008V58.5039H51.8125V61.9609H59.2539V58.5039H56.2891V57.5898H60.4141V56.4062ZM51.543 52.9023H52.9258V54.5312H51.6133V55.7266H59.4766V54.5312H58.1523V52.9023H59.5469V51.707H51.543V52.9023ZM53.2891 60.7656V59.6641H57.7891V60.7656H53.2891ZM54.4258 54.5312V52.9023H56.6523V54.5312H54.4258Z" fill="#4C5257"/>
<defs>
<clipPath id="clip0_1375_6528">
<rect width="28" height="36" fill="white" transform="translate(26 8)"/>
</clipPath>
</defs>
</svg>
