<svg width="37" height="16" viewBox="0 0 37 16" fill="none" xmlns="http://www.w3.org/2000/svg">
<rect width="37" height="16" rx="8" fill="white"/>
<rect width="16" height="16" rx="8" fill="#0071B9"/>
<path fill-rule="evenodd" clip-rule="evenodd" d="M7.92505 10.184V7.60962H5.83292L5.98173 8.5802H6.84834V9.51844C6.64701 9.63398 6.45005 9.68945 6.17431 9.68945C5.31207 9.68945 4.87877 8.99155 4.87877 7.99785C4.87877 7.00878 5.29894 6.33861 6.16118 6.33861C6.67765 6.33861 7.11971 6.53735 7.49612 6.79155L7.66244 5.64995C7.25977 5.41424 6.7433 5.26172 6.13054 5.26172C4.58552 5.26172 3.63574 6.37096 3.63574 8.0071C3.63574 9.63861 4.51111 10.7386 6.0999 10.7386C6.78707 10.7386 7.4042 10.5399 7.92505 10.184Z" fill="white"/>
<path fill-rule="evenodd" clip-rule="evenodd" d="M12.0003 9.04666C12.0003 8.20548 11.567 7.808 10.4815 7.38741C9.85562 7.13783 9.71993 7.0038 9.71993 6.73573C9.71993 6.49078 9.89938 6.32439 10.2802 6.32439C10.661 6.32439 11.1337 6.47691 11.5845 6.7496L11.7727 5.6496C11.335 5.42775 10.9192 5.29834 10.267 5.29834C9.31289 5.29834 8.55569 5.8391 8.55569 6.86052C8.55569 7.73405 8.989 8.07607 9.9913 8.48279C10.696 8.76472 10.8404 8.90338 10.8404 9.2038C10.8404 9.51809 10.5953 9.67985 10.2364 9.67985C9.73744 9.67985 9.16408 9.48111 8.65198 9.18993L8.47253 10.3084C8.98025 10.5534 9.54486 10.7059 10.2189 10.7059C11.2037 10.7013 12.0003 10.1975 12.0003 9.04666Z" fill="white"/>
<path d="M18.5273 11H22.9482V10.042H20.1182V9.99805L21.252 8.87305C22.5044 7.69092 22.8472 7.11084 22.8516 6.39453C22.8472 5.32666 21.9727 4.54883 20.6719 4.54883C19.4019 4.54883 18.4966 5.33105 18.501 6.53516H19.5908C19.5864 5.88916 20.0083 5.48047 20.6631 5.48047C21.2827 5.48047 21.7529 5.854 21.7529 6.44727C21.7529 6.9834 21.4189 7.36133 20.7773 8.00293L18.5273 10.1738V11ZM25.8398 9.97168H26.8066V8.31055H28.4766V7.33496H26.8066V5.67383H25.8398V7.33496H24.1787V8.31055H25.8398V9.97168ZM32.335 4.63672H31.2363L29.6631 5.65625V6.70215L31.1484 5.75293H31.1836V11H32.335V4.63672Z" fill="#0071B9"/>
<rect x="0.5" y="0.5" width="36" height="15" rx="7.5" stroke="#0071B9" stroke-opacity="0.3"/>
</svg>
