<svg width="80" height="80" viewBox="0 0 80 80" fill="none" xmlns="http://www.w3.org/2000/svg">
<rect width="80" height="80" rx="10" fill="white"/>
<g clip-path="url(#clip0_1375_6511)">
<path d="M49.4284 16.5715H30.5713C29.4667 16.5715 28.5713 17.467 28.5713 18.5715V37.4287C28.5713 38.5332 29.4667 39.4287 30.5713 39.4287H49.4284C50.533 39.4287 51.4284 38.5332 51.4284 37.4287V18.5715C51.4284 17.467 50.533 16.5715 49.4284 16.5715Z" fill="#F4F2F2"/>
<path d="M45.7145 12H42.2859H37.7145H34.2859C33.6574 12 33.1431 12.5143 33.1431 13.1429V16.5714H37.7145H42.2859H46.8574V13.1429C46.8574 12.5143 46.3431 12 45.7145 12Z" fill="black"/>
<path d="M51.4284 21.143H47.9998C47.3712 21.143 46.8569 20.6287 46.8569 20.0001V16.5715H50.2855C50.9141 16.5715 51.4284 17.0858 51.4284 17.7144V21.143Z" fill="black"/>
<path d="M38.8571 27.9999H35.4285C34.7999 27.9999 34.2856 27.4856 34.2856 26.8571V23.4285C34.2856 22.7999 34.7999 22.2856 35.4285 22.2856H38.8571C39.4856 22.2856 39.9999 22.7999 39.9999 23.4285V26.8571C39.9999 27.4856 39.4856 27.9999 38.8571 27.9999Z" fill="#FF8A8A"/>
<path d="M44.5714 27.9999H41.1429C40.5143 27.9999 40 27.4856 40 26.8571V23.4285C40 22.7999 40.5143 22.2856 41.1429 22.2856H44.5714C45.2 22.2856 45.7143 22.7999 45.7143 23.4285V26.8571C45.7143 27.4856 45.2 27.9999 44.5714 27.9999Z" fill="#238441"/>
<path d="M44.5714 33.7143H41.1429C40.5143 33.7143 40 33.2 40 32.5714V29.1429C40 28.5143 40.5143 28 41.1429 28H44.5714C45.2 28 45.7143 28.5143 45.7143 29.1429V32.5714C45.7143 33.2 45.2 33.7143 44.5714 33.7143Z" fill="#F2AD49"/>
<path d="M38.8571 33.7143H35.4285C34.7999 33.7143 34.2856 33.2 34.2856 32.5714V29.1429C34.2856 28.5143 34.7999 28 35.4285 28H38.8571C39.4856 28 39.9999 28.5143 39.9999 29.1429V32.5714C39.9999 33.2 39.4856 33.7143 38.8571 33.7143Z" fill="#5E3E3E"/>
<path d="M50.2855 39.4286H46.8569V36C46.8569 35.3715 47.3712 34.8572 47.9998 34.8572H51.4284V38.2857C51.4284 38.9143 50.9141 39.4286 50.2855 39.4286Z" fill="black"/>
<path d="M33.1427 39.4286H29.7141C29.0856 39.4286 28.5713 38.9143 28.5713 38.2857V34.8572H31.9999C32.6284 34.8572 33.1427 35.3715 33.1427 36V39.4286Z" fill="black"/>
<path d="M54.8573 21.1428H51.4287V25.7143V30.2857V34.8571H54.8573C55.4859 34.8571 56.0001 34.3428 56.0001 33.7143V30.2857V25.7143V22.2857C56.0001 21.6571 55.4859 21.1428 54.8573 21.1428Z" fill="black"/>
<path d="M42.2859 39.4285H37.7145H33.1431V42.857C33.1431 43.4856 33.6574 43.9999 34.2859 43.9999H37.7145H42.2859H45.7145C46.3431 43.9999 46.8574 43.4856 46.8574 42.857V39.4285H42.2859Z" fill="black"/>
<path d="M25.1429 21.1428C24.5143 21.1428 24 21.6571 24 22.2857V25.7143V30.2857V33.7143C24 34.3428 24.5143 34.8571 25.1429 34.8571H28.5714V30.2857V25.7143V21.1428H25.1429Z" fill="black"/>
<path d="M31.9999 21.143H28.5713V17.7144C28.5713 17.0858 29.0856 16.5715 29.7141 16.5715H33.1427V20.0001C33.1427 20.6287 32.6284 21.143 31.9999 21.143Z" fill="black"/>
<path d="M37.7142 21.7143H35.4285C34.7999 21.7143 34.2856 21.2 34.2856 20.5714V18.2857C34.2856 17.6571 34.7999 17.1428 35.4285 17.1428H37.7142C38.3428 17.1428 38.8571 17.6571 38.8571 18.2857V20.5714C38.8571 21.2 38.3428 21.7143 37.7142 21.7143Z" fill="white"/>
<path d="M32.5716 26.8571H30.2859C29.6574 26.8571 29.1431 26.3428 29.1431 25.7142V23.4285C29.1431 22.7999 29.6574 22.2856 30.2859 22.2856H32.5716C33.2002 22.2856 33.7145 22.7999 33.7145 23.4285V25.7142C33.7145 26.3428 33.2002 26.8571 32.5716 26.8571Z" fill="white"/>
</g>
<path d="M28.0352 51.4141H26.5234V59.0547H28.0352V55.6328H29.4766V54.4023H28.0352V51.4141ZM19.5039 56.8281L20.125 58.0117C23.3242 57.1094 25.123 55.0938 25.1289 52.2109H19.9727V53.4297H23.4824C23.248 54.9297 21.8945 56.166 19.5039 56.8281ZM21.0977 61.8906H28.3984V60.6953H22.6094V58.2695H21.0977V61.8906ZM38.9336 51.4141H37.4453V53.2891H36.0859V54.4844H37.4453V55.4102H36.0859V56.6406H37.4453V59.2656H38.9336V51.4141ZM29.9453 56.7578L30.0977 57.9766C31.791 57.9766 34.123 57.9297 36.1211 57.6016L36.0625 56.5117C35.7285 56.5469 35.377 56.582 35.0195 56.6113V53.3711H35.8984V52.1758H30.2148V53.3711H31.082V56.752C30.6836 56.7578 30.2969 56.7578 29.9453 56.7578ZM31.8438 61.8906H39.1914V60.6953H33.3438V58.6797H31.8438V61.8906ZM32.5234 56.7285V53.3711H33.5898V56.6934L32.5234 56.7285ZM44.4062 52.9258V51.9062H42.8477V52.9258C42.8477 54.2852 42.0625 55.6738 40.2812 56.2422L41.0312 57.4141C42.2852 57.0098 43.1523 56.1777 43.6328 55.1289C44.1074 56.1016 44.9512 56.8633 46.1641 57.25L46.9141 56.0781C45.1562 55.5508 44.3945 54.2559 44.4062 52.9258ZM41.9102 59.4297H47.7461V62.0781H49.2461V58.2344H41.9102V59.4297ZM47.7461 57.7773H49.2461V51.4141H47.7461V57.7773ZM54.6133 53.8281V52.2344H53.1133V53.8281C53.1133 55.8086 52.2637 57.8477 50.4531 58.6797L51.3789 59.8867C52.5859 59.2891 53.4062 58.1582 53.875 56.7812C54.3145 58.0645 55.0879 59.1191 56.2305 59.6875L57.1328 58.4922C55.4219 57.666 54.6074 55.7383 54.6133 53.8281ZM57.6016 62.0781H59.1016V56.793H60.6719V55.5273H59.1016V51.4141H57.6016V62.0781Z" fill="#4C5257"/>
<defs>
<clipPath id="clip0_1375_6511">
<rect width="32" height="32" fill="white" transform="translate(24 12)"/>
</clipPath>
</defs>
</svg>
