<svg width="37" height="16" viewBox="0 0 37 16" fill="none" xmlns="http://www.w3.org/2000/svg">
<rect width="37" height="16" rx="8" fill="white"/>
<rect width="16" height="16" rx="8" fill="#213A8F"/>
<path d="M10.1265 4.75C9.78549 4.75 9.46451 4.91404 9.26389 5.16009L8.06019 6.55442C8.06019 6.55442 8.04012 6.59543 8.02006 6.59543C7.97994 6.59543 7.95988 6.55442 7.95988 6.55442L6.73611 5.1806C6.53549 4.91404 6.21451 4.75 5.87346 4.75C5.25154 4.75 4.75 5.26262 4.75 5.89827V10.1222C4.75 10.7374 5.23148 11.2295 5.83333 11.2295C6.43518 11.2295 6.91667 10.7374 6.91667 10.1222L6.93673 8.60489C6.93673 8.58439 6.95679 8.58438 6.97685 8.58438H6.99691L7.95988 9.69164C7.95988 9.69164 7.97994 9.73265 8.02006 9.73265C8.06019 9.73265 8.08025 9.69164 8.08025 9.69164L9.00309 8.56388H9.02315C9.04321 8.56388 9.06327 8.58439 9.06327 8.60489L9.08333 10.1427C9.08333 10.7579 9.56482 11.25 10.1667 11.25C10.7685 11.25 11.25 10.7579 11.25 10.1427V5.89827C11.25 5.26262 10.7485 4.75 10.1265 4.75Z" fill="white"/>
<path d="M24.5303 3.81934H23.5547V8.15234H24.5303V6.40332H25.6465V5.6123H24.5303V3.81934ZM18.2725 5.22559H22.9834V4.47852H21.1201V3.77539H20.1445V4.47852H18.2725V5.22559ZM18.6768 6.77246C18.6768 7.58545 19.4546 8.07324 20.6279 8.07324C21.8057 8.07324 22.5659 7.58545 22.5703 6.77246C22.5659 5.98145 21.8057 5.47607 20.6279 5.47168C19.4546 5.47607 18.6768 5.98145 18.6768 6.77246ZM19.3359 9.21582H23.5547V9.74316H19.3447V11.7119H24.7764V10.9824H20.3115V10.4199H24.5303V8.50391H19.3359V9.21582ZM19.626 6.77246C19.6216 6.39453 20.0127 6.17041 20.6279 6.1748C21.2432 6.17041 21.6387 6.39453 21.6387 6.77246C21.6387 7.16357 21.2432 7.36572 20.6279 7.37012C20.0127 7.36572 19.6216 7.16357 19.626 6.77246ZM32.6602 3.8457H31.6758V9.58496H32.6602V3.8457ZM26.1826 6.35059C26.1826 7.52393 27.1187 8.3457 28.3271 8.3457C29.5356 8.3457 30.4673 7.52393 30.4629 6.35059C30.4673 5.19482 29.5356 4.36865 28.3271 4.36426C27.1187 4.36865 26.1826 5.19482 26.1826 6.35059ZM27.1406 6.35059C27.1362 5.66504 27.646 5.2168 28.3271 5.2168C28.9907 5.2168 29.5049 5.66504 29.5049 6.35059C29.5049 7.05371 28.9907 7.49316 28.3271 7.49316C27.646 7.49316 27.1362 7.05371 27.1406 6.35059ZM27.4043 11.624H32.8799V10.833H28.3887V9.00488H27.4043V11.624Z" fill="#213A8F"/>
<rect x="0.5" y="0.5" width="36" height="15" rx="7.5" stroke="#213A8F" stroke-opacity="0.3"/>
</svg>
