<svg width="37" height="16" viewBox="0 0 37 16" fill="none" xmlns="http://www.w3.org/2000/svg">
<rect width="37" height="16" rx="8" fill="white"/>
<rect width="16" height="16" rx="8" fill="#258E37"/>
<path d="M7.94486 6.19267H4.6001V4.62207H10.5981H10.6404C10.6404 4.62207 8.9751 5.25843 7.98719 6.19267H7.94486Z" fill="white"/>
<path d="M11.6001 4.5V6.26015C11.6001 6.26015 9.82187 6.70696 9.59606 7.96615C9.59606 7.96615 9.22913 9.49613 9.31381 11.4865H6.66058C6.66058 11.4865 6.56179 8.83269 7.36622 7.32979C7.36622 7.32979 8.14243 5.58317 11.6001 4.5Z" fill="white"/>
<path d="M24.5303 3.81934H23.5547V8.15234H24.5303V6.40332H25.6465V5.6123H24.5303V3.81934ZM18.2725 5.22559H22.9834V4.47852H21.1201V3.77539H20.1445V4.47852H18.2725V5.22559ZM18.6768 6.77246C18.6768 7.58545 19.4546 8.07324 20.6279 8.07324C21.8057 8.07324 22.5659 7.58545 22.5703 6.77246C22.5659 5.98145 21.8057 5.47607 20.6279 5.47168C19.4546 5.47607 18.6768 5.98145 18.6768 6.77246ZM19.3359 9.21582H23.5547V9.74316H19.3447V11.7119H24.7764V10.9824H20.3115V10.4199H24.5303V8.50391H19.3359V9.21582ZM19.626 6.77246C19.6216 6.39453 20.0127 6.17041 20.6279 6.1748C21.2432 6.17041 21.6387 6.39453 21.6387 6.77246C21.6387 7.16357 21.2432 7.36572 20.6279 7.37012C20.0127 7.36572 19.6216 7.16357 19.626 6.77246ZM32.6602 3.8457H31.6758V9.58496H32.6602V3.8457ZM26.1826 6.35059C26.1826 7.52393 27.1187 8.3457 28.3271 8.3457C29.5356 8.3457 30.4673 7.52393 30.4629 6.35059C30.4673 5.19482 29.5356 4.36865 28.3271 4.36426C27.1187 4.36865 26.1826 5.19482 26.1826 6.35059ZM27.1406 6.35059C27.1362 5.66504 27.646 5.2168 28.3271 5.2168C28.9907 5.2168 29.5049 5.66504 29.5049 6.35059C29.5049 7.05371 28.9907 7.49316 28.3271 7.49316C27.646 7.49316 27.1362 7.05371 27.1406 6.35059ZM27.4043 11.624H32.8799V10.833H28.3887V9.00488H27.4043V11.624Z" fill="#258E37"/>
<rect x="0.5" y="0.5" width="36" height="15" rx="7.5" stroke="#258E37" stroke-opacity="0.3"/>
</svg>
