<svg width="138" height="94" viewBox="0 0 138 94" fill="none" xmlns="http://www.w3.org/2000/svg">
<g clip-path="url(#clip0_1547_8825)">
<path d="M136.432 12.5333H131.727V7.83333C131.727 6.97167 131.022 6.26667 130.159 6.26667H125.455V1.56667C125.455 0.705 124.749 0 123.886 0H14.1136C13.2511 0 12.5455 0.705 12.5455 1.56667V6.26667H7.84091C6.97841 6.26667 6.27273 6.97167 6.27273 7.83333V12.5333H1.56818C0.705682 12.5333 0 13.2383 0 14.1V67.3667C0 68.2283 0.705682 68.9333 1.56818 68.9333H6.27273V73.6333C6.27273 74.495 6.97841 75.2 7.84091 75.2H12.5455V79.9C12.5455 80.7617 13.2511 81.4667 14.1136 81.4667H81.5455V86.1667C81.5455 87.0283 82.2511 87.7333 83.1136 87.7333H94.0909V92.4333C94.0909 93.295 94.7966 94 95.6591 94H117.614C118.476 94 119.182 93.295 119.182 92.4333V89.3C119.182 88.4383 118.476 87.7333 117.614 87.7333H112.909V81.4667H123.886C124.749 81.4667 125.455 80.7617 125.455 79.9V75.2H130.159C131.022 75.2 131.727 74.495 131.727 73.6333V68.9333H136.432C137.294 68.9333 138 68.2283 138 67.3667V14.1C138 13.2383 137.294 12.5333 136.432 12.5333Z" fill="#26292C"/>
<path d="M70.2222 48.0596C69.55 48.0596 69 48.609 69 49.2806V56.6069C69 57.2784 69.55 57.8279 70.2222 57.8279H73.8889V48.0596H70.2222Z" fill="white"/>
<path d="M73.8889 61.491C73.8889 62.1626 74.4389 62.712 75.1111 62.712H87.3334C88.0056 62.712 88.5556 62.1626 88.5556 61.491V57.8279H73.8889V61.491Z" fill="white"/>
<path d="M88.5556 44.3966C88.5556 43.725 88.0056 43.1755 87.3334 43.1755H75.1111C74.4389 43.1755 73.8889 43.725 73.8889 44.3966V48.0597H88.5556V44.3966Z" fill="white"/>
<path d="M92.2223 48.0596H88.5556V57.8279H92.2223C92.8945 57.8279 93.4445 57.2784 93.4445 56.6069V49.2806C93.4445 48.609 92.8945 48.0596 92.2223 48.0596Z" fill="white"/>
<path d="M62.8889 18.7546H60.4445C59.7723 18.7546 59.2223 19.3041 59.2223 19.9757V23.6388H55.5556C54.8834 23.6388 54.3334 24.1883 54.3334 24.8598V27.3019C54.3334 27.9735 54.8834 28.523 55.5556 28.523H59.2223V33.4071H55.5556C54.8834 33.4071 54.3334 33.9566 54.3334 34.6282V37.0702C54.3334 37.7418 54.8834 38.2913 55.5556 38.2913H59.2223V41.9544C59.2223 42.626 59.7723 43.1755 60.4445 43.1755H62.8889C63.5611 43.1755 64.1111 42.626 64.1111 41.9544V19.9757C64.1111 19.3041 63.5611 18.7546 62.8889 18.7546Z" fill="white"/>
<path d="M111.961 38.2913H109.15C108.6 38.2913 108.111 38.7797 108.111 39.3291V48.0596H103.222V39.3291C103.222 38.7797 102.733 38.2913 102.183 38.2913H99.3722C98.8222 38.2913 98.3333 38.7797 98.3333 39.3291V61.6742C98.3333 62.2237 98.8222 62.7121 99.3722 62.7121H102.183C102.733 62.7121 103.222 62.2237 103.222 61.6742V52.9437H108.111V61.6742C108.111 62.2237 108.6 62.7121 109.15 62.7121H111.961C112.511 62.7121 113 62.2237 113 61.6742V39.3291C113 38.7797 112.511 38.2913 111.961 38.2913Z" fill="white"/>
<path d="M92.2222 33.4071H83.6667V29.744C83.6667 29.0724 83.1167 28.5229 82.4444 28.5229H80C79.3278 28.5229 78.7778 29.0724 78.7778 29.744V33.4071H70.2222C69.55 33.4071 69 33.9566 69 34.6282V37.0702C69 37.7418 69.55 38.2913 70.2222 38.2913H92.2222C92.8944 38.2913 93.4444 37.7418 93.4444 37.0702V34.6282C93.4444 33.9566 92.8944 33.4071 92.2222 33.4071Z" fill="white"/>
<path d="M62.8889 48.0597H39.6667V44.3966C39.6667 43.725 39.1167 43.1755 38.4445 43.1755H36.0001C35.3278 43.1755 34.7778 43.725 34.7778 44.3966V51.7228C34.7778 52.3944 35.3278 52.9439 36.0001 52.9439H39.6667H62.8889C63.5612 52.9439 64.1112 52.3944 64.1112 51.7228V49.2807C64.1112 48.6092 63.5612 48.0597 62.8889 48.0597Z" fill="white"/>
<path d="M49.4445 37.0703V34.6282C49.4445 33.9566 48.8945 33.4071 48.2223 33.4071H44.5556V23.6388H48.2223C48.8945 23.6388 49.4445 23.0893 49.4445 22.4178V19.9757C49.4445 19.3041 48.8945 18.7546 48.2223 18.7546H26.2223C25.5501 18.7546 25.0001 19.3041 25.0001 19.9757V22.4178C25.0001 23.0893 25.5501 23.6388 26.2223 23.6388H29.8889V28.523V33.4071H26.2223C25.5501 33.4071 25.0001 33.9566 25.0001 34.6282V37.0703C25.0001 37.7418 25.5501 38.2913 26.2223 38.2913H48.2223C48.8945 38.2913 49.4445 37.7418 49.4445 37.0703ZM34.7778 33.4071V28.523V23.6388H39.6667V33.4071H34.7778Z" fill="white"/>
</g>
<defs>
<clipPath id="clip0_1547_8825">
<rect width="138" height="94" fill="white"/>
</clipPath>
</defs>
</svg>
