<svg width="24" height="24" viewBox="0 0 24 24" fill="none" xmlns="http://www.w3.org/2000/svg">
<path d="M12.0262 3.30005C8.51864 3.30005 5.66808 5.85132 5.66808 8.99062V11.7316C5.66808 12.3101 5.39256 13.1922 5.06406 13.6853L3.84542 15.4968C3.09305 16.616 3.61229 17.8584 4.98988 18.2757C9.55713 19.6415 14.4847 19.6415 19.0519 18.2757C20.3341 17.8964 20.8958 16.5401 20.1964 15.4968L18.9777 13.6853C18.6598 13.1922 18.3843 12.3101 18.3843 11.7316V8.99062C18.3843 5.86081 15.5232 3.30005 12.0262 3.30005Z" stroke="#4C5257" stroke-width="1.5" stroke-miterlimit="10" stroke-linecap="round"/>
<path d="M13.8699 3.26C12.6606 2.91559 11.3792 2.91559 10.1699 3.26C10.4599 2.52 11.1799 2 12.0199 2C12.8599 2 13.5799 2.52 13.8699 3.26V3.26Z" stroke="#4C5257" stroke-width="1.5" stroke-miterlimit="10" stroke-linecap="round" stroke-linejoin="round"/>
<path d="M15 19.3C15 20.95 13.65 22.3 12 22.3C11.18 22.3 10.42 21.96 9.88 21.42C9.31816 20.8574 9.00179 20.0952 9 19.3" stroke="#4C5257" stroke-width="1.5" stroke-miterlimit="10"/>
</svg>
